<svg width="40" height="40" viewBox="0 0 40 40" fill="none" xmlns="http://www.w3.org/2000/svg">
<path opacity="0.1" fill-rule="evenodd" clip-rule="evenodd" d="M0 20C0 8.95431 8.95431 0 20 0C31.0457 0 40 8.95431 40 20C40 31.0457 31.0457 40 20 40C8.95431 40 0 31.0457 0 20Z" fill="#E5E5E5"/>
<path d="M24.1667 11.2651H21.6667C20.5617 11.2651 19.5019 11.7041 18.7205 12.4855C17.9391 13.2669 17.5001 14.3267 17.5001 15.4318V17.9318H15.0001V21.2651H17.5001V27.9318H20.8334V21.2651H23.3334L24.1667 17.9318H20.8334V15.4318C20.8334 15.2108 20.9212 14.9988 21.0775 14.8426C21.2338 14.6863 21.4457 14.5985 21.6667 14.5985H24.1667V11.2651Z" fill="white"/>
</svg>
