<svg width="40" height="40" viewBox="0 0 40 40" fill="none" xmlns="http://www.w3.org/2000/svg">
<path opacity="0.1" fill-rule="evenodd" clip-rule="evenodd" d="M-6.10352e-05 20C-6.10352e-05 8.95431 8.95425 0 20 0C31.0457 0 40 8.95431 40 20C40 31.0457 31.0457 40 20 40C8.95425 40 -6.10352e-05 31.0457 -6.10352e-05 20Z" fill="#E5E5E5"/>
<path fill-rule="evenodd" clip-rule="evenodd" d="M20.0009 9.3335C17.104 9.3335 16.7404 9.34616 15.6027 9.39794C14.4671 9.44994 13.692 9.62972 13.0137 9.8935C12.3122 10.1659 11.7171 10.5304 11.1242 11.1235C10.5308 11.7164 10.1664 12.3115 9.89304 13.0129C9.62859 13.6913 9.44859 14.4667 9.39747 15.6018C9.34659 16.7396 9.33325 17.1034 9.33325 20.0003C9.33325 22.8972 9.34614 23.2597 9.3977 24.3974C9.44992 25.533 9.6297 26.3081 9.89326 26.9864C10.1659 27.6879 10.5304 28.283 11.1235 28.8759C11.7162 29.4693 12.3113 29.8346 13.0124 30.1071C13.6911 30.3708 14.4664 30.5506 15.6018 30.6026C16.7396 30.6544 17.1029 30.6671 19.9996 30.6671C22.8967 30.6671 23.2592 30.6544 24.397 30.6026C25.5325 30.5506 26.3086 30.3708 26.9872 30.1071C27.6886 29.8346 28.2828 29.4693 28.8755 28.8759C29.4688 28.283 29.8333 27.6879 30.1066 26.9866C30.3688 26.3081 30.5488 25.5328 30.6022 24.3977C30.6533 23.2599 30.6666 22.8972 30.6666 20.0003C30.6666 17.1034 30.6533 16.7398 30.6022 15.602C30.5488 14.4664 30.3688 13.6913 30.1066 13.0131C29.8333 12.3115 29.4688 11.7164 28.8755 11.1235C28.2821 10.5302 27.6888 10.1657 26.9866 9.8935C26.3066 9.62972 25.531 9.44994 24.3954 9.39794C23.2576 9.34616 22.8954 9.3335 19.9976 9.3335H20.0009ZM19.044 11.2557C19.328 11.2553 19.6449 11.2557 20.0009 11.2557C22.8489 11.2557 23.1865 11.2659 24.3112 11.317C25.3512 11.3646 25.9156 11.5384 26.2916 11.6844C26.7894 11.8777 27.1443 12.1088 27.5174 12.4822C27.8907 12.8555 28.1219 13.2111 28.3156 13.7088C28.4616 14.0844 28.6356 14.6489 28.683 15.6889C28.7341 16.8133 28.7452 17.1511 28.7452 19.9978C28.7452 22.8445 28.7341 23.1823 28.683 24.3067C28.6354 25.3468 28.4616 25.9112 28.3156 26.2868C28.1223 26.7846 27.8907 27.139 27.5174 27.5121C27.1441 27.8855 26.7896 28.1166 26.2916 28.3099C25.9161 28.4566 25.3512 28.6299 24.3112 28.6775C23.1867 28.7286 22.8489 28.7397 20.0009 28.7397C17.1526 28.7397 16.8151 28.7286 15.6906 28.6775C14.6506 28.6295 14.0861 28.4557 13.7099 28.3097C13.2121 28.1163 12.8566 27.8852 12.4832 27.5119C12.1099 27.1386 11.8788 26.7839 11.685 26.2859C11.539 25.9103 11.365 25.3459 11.3177 24.3059C11.2666 23.1814 11.2563 22.8436 11.2563 19.9951C11.2563 17.1467 11.2666 16.8107 11.3177 15.6862C11.3652 14.6462 11.539 14.0817 11.685 13.7057C11.8783 13.208 12.1099 12.8524 12.4832 12.4791C12.8566 12.1057 13.2121 11.8746 13.7099 11.6808C14.0859 11.5342 14.6506 11.3608 15.6906 11.313C16.6746 11.2686 17.056 11.2553 19.044 11.253V11.2557ZM25.6947 13.0268C24.9881 13.0268 24.4147 13.5995 24.4147 14.3064C24.4147 15.0131 24.9881 15.5864 25.6947 15.5864C26.4014 15.5864 26.9747 15.0131 26.9747 14.3064C26.9747 13.5997 26.4014 13.0268 25.6947 13.0268ZM20.0009 14.5224C16.9758 14.5224 14.5231 16.9751 14.5231 20.0003C14.5231 23.0254 16.9758 25.477 20.0009 25.477C23.0261 25.477 25.4779 23.0254 25.4779 20.0003C25.4779 16.9751 23.0261 14.5224 20.0009 14.5224ZM20.0009 16.4447C21.9645 16.4447 23.5565 18.0365 23.5565 20.0003C23.5565 21.9638 21.9645 23.5558 20.0009 23.5558C18.0371 23.5558 16.4453 21.9638 16.4453 20.0003C16.4453 18.0365 18.0371 16.4447 20.0009 16.4447Z" fill="white"/>
</svg>
