<svg width="40" height="40" viewBox="0 0 40 40" fill="none" xmlns="http://www.w3.org/2000/svg">
<path opacity="0.1" fill-rule="evenodd" clip-rule="evenodd" d="M6.10352e-05 20C6.10352e-05 8.95431 8.95437 0 20.0001 0C31.0458 0 40.0001 8.95431 40.0001 20C40.0001 31.0457 31.0458 40 20.0001 40C8.95437 40 6.10352e-05 31.0457 6.10352e-05 20Z" fill="#E5E5E5"/>
<path fill-rule="evenodd" clip-rule="evenodd" d="M28.3348 13.1245C29.2527 13.3764 29.9756 14.1186 30.221 15.0611C30.6668 16.7693 30.6668 20.3334 30.6668 20.3334C30.6668 20.3334 30.6668 23.8974 30.221 25.6057C29.9756 26.5483 29.2527 27.2904 28.3348 27.5424C26.6713 28.0001 20.0001 28.0001 20.0001 28.0001C20.0001 28.0001 13.329 28.0001 11.6653 27.5424C10.7474 27.2904 10.0245 26.5483 9.77913 25.6057C9.33344 23.8974 9.33344 20.3334 9.33344 20.3334C9.33344 20.3334 9.33344 16.7693 9.77913 15.0611C10.0245 14.1186 10.7474 13.3764 11.6653 13.1245C13.329 12.6667 20.0001 12.6667 20.0001 12.6667C20.0001 12.6667 26.6713 12.6667 28.3348 13.1245ZM18.0001 17.3333V24L23.3335 20.6668L18.0001 17.3333Z" fill="white"/>
</svg>
