<svg width="162" height="48" viewBox="0 0 162 48" fill="none" xmlns="http://www.w3.org/2000/svg">
<g clip-path="url(#clip0_60_6263)">
<g opacity="0.12">
<path d="M149.098 -8.81416e-05H12.9079C12.4114 -8.81416e-05 11.921 -8.81415e-05 11.4258 0.00231184C11.0114 0.00471183 10.6002 0.0116838 10.1818 0.0175517C9.27274 0.0270339 8.36584 0.0979228 7.46895 0.229602C6.57332 0.364149 5.70575 0.617807 4.89557 0.981998C4.08639 1.34927 3.34701 1.8265 2.70427 2.39638C2.05816 2.96466 1.51957 3.62151 1.10922 4.34168C0.697739 5.06041 0.412417 5.8306 0.263107 6.62565C0.112379 7.41969 0.0312702 8.22289 0.0205098 9.02803C0.0079467 9.39595 0.00661999 9.76509 0 10.1331V37.87C0.00661999 38.2426 0.0079467 38.6036 0.0205098 38.9763C0.0312735 39.7814 0.112382 40.5845 0.263107 41.3785C0.412004 42.174 0.697344 42.9447 1.10922 43.6637C1.51938 44.3815 2.05805 45.0357 2.70427 45.6008C3.34458 46.1732 4.08443 46.6508 4.89557 47.0153C5.70574 47.3804 6.57322 47.6356 7.46895 47.7722C8.36599 47.9028 9.2728 47.9738 10.1818 47.9844C10.6002 47.9925 11.0114 47.9972 11.4258 47.9972C11.921 47.9996 12.4115 47.9996 12.9079 47.9996H149.098C149.585 47.9996 150.079 47.9996 150.566 47.9972C150.978 47.9972 151.401 47.9925 151.814 47.9844C152.721 47.9743 153.626 47.9034 154.522 47.7722C155.42 47.6346 156.291 47.3795 157.105 47.0153C157.915 46.6506 158.654 46.173 159.294 45.6008C159.939 45.0335 160.479 44.3798 160.894 43.6637C161.303 42.9442 161.585 42.1736 161.732 41.3785C161.883 40.5844 161.967 39.7814 161.983 38.9763C161.988 38.6036 161.988 38.2426 161.988 37.87C161.999 37.434 161.999 37.0005 161.999 36.5574V11.4432C161.999 11.0037 161.999 10.5678 161.988 10.1331C161.988 9.76509 161.988 9.39595 161.983 9.02798C161.967 8.22277 161.883 7.41975 161.732 6.6256C161.585 5.83101 161.302 5.06088 160.894 4.34163C160.058 2.89813 158.733 1.72313 157.105 0.98189C156.291 0.618589 155.42 0.364998 154.522 0.229494C153.626 0.0972346 152.721 0.026321 151.814 0.0173838C151.401 0.0115278 150.978 0.00449583 150.566 0.00215584C150.079 -0.000244141 149.585 -0.000244141 149.098 -0.000244141V-8.81416e-05Z" fill="white"/>
<path d="M11.3161 46.9533C10.903 46.9533 10.4998 46.9486 10.0898 46.9404C9.24059 46.9306 8.39335 46.8652 7.55504 46.7447C6.77336 46.6255 6.01612 46.4039 5.30831 46.087C4.60698 45.7729 3.96731 45.3609 3.41381 44.8669C2.85229 44.3787 2.3848 43.8125 2.02987 43.1907C1.67103 42.5649 1.42269 41.8941 1.2935 41.2017C1.15399 40.4577 1.07851 39.7054 1.06771 38.9512C1.05911 38.6981 1.04785 37.8553 1.04785 37.8553V10.129C1.04785 10.129 1.05984 9.29914 1.06777 9.05533C1.07811 8.3024 1.15316 7.55125 1.29225 6.80839C1.42168 6.11407 1.67021 5.44134 2.02925 4.81347C2.38288 4.19212 2.84777 3.6255 3.4059 3.13559C3.9634 2.64102 4.60512 2.22691 5.30764 1.90837C6.01383 1.59257 6.76964 1.37249 7.54974 1.25551C8.3908 1.13377 9.24099 1.06795 10.0932 1.0586L11.3168 1.04395H150.683L151.922 1.05919C152.766 1.06807 153.608 1.1333 154.442 1.25434C155.23 1.37278 155.993 1.5944 156.708 1.91189C158.115 2.55384 159.26 3.56945 159.983 4.8164C160.336 5.43993 160.581 6.10718 160.709 6.7955C160.849 7.54445 160.928 8.3015 160.944 9.06061C160.948 9.40052 160.948 9.76563 160.948 10.129C160.959 10.5791 160.959 11.0075 160.959 11.4394V36.5589C160.959 36.995 160.959 37.4204 160.948 37.8494C160.948 38.2397 160.948 38.5973 160.943 38.9653C160.927 39.7108 160.85 40.4544 160.711 41.1899C160.585 41.8873 160.338 42.5634 159.979 43.1943C159.621 43.8094 159.157 44.3707 158.602 44.8575C158.048 45.3542 157.407 45.7686 156.704 46.0848C155.991 46.404 155.229 46.6265 154.442 46.7447C153.604 46.8658 152.756 46.9313 151.907 46.9404C151.51 46.9486 151.094 46.9533 150.69 46.9533L149.22 46.9557L11.3161 46.9533Z" fill="white"/>
</g>
<path d="M43.2907 23.2841C43.3023 22.3838 43.5415 21.5011 43.9859 20.7181C44.4303 19.9351 45.0656 19.2772 45.8326 18.8056C45.3453 18.1098 44.7025 17.5371 43.9552 17.1331C43.2079 16.7291 42.3767 16.5049 41.5276 16.4783C39.7164 16.2882 37.9604 17.5622 37.0374 17.5622C36.0966 17.5622 34.6755 16.4972 33.1452 16.5287C32.1554 16.5607 31.1908 16.8485 30.3453 17.3641C29.4998 17.8798 28.8022 18.6057 28.3207 19.471C26.2346 23.0827 27.7906 28.3906 29.7889 31.31C30.7887 32.7396 31.9571 34.3364 33.486 34.2798C34.9821 34.2177 35.5409 33.3258 37.3468 33.3258C39.136 33.3258 39.6602 34.2798 41.2201 34.2438C42.8255 34.2177 43.837 32.8079 44.8017 31.3648C45.52 30.3462 46.0728 29.2204 46.4395 28.0291C45.5068 27.6347 44.7108 26.9744 44.1509 26.1306C43.591 25.2868 43.2918 24.2968 43.2907 23.2841Z" fill="white"/>
<path d="M40.3446 14.5585C41.2199 13.5077 41.6511 12.1571 41.5467 10.7935C40.2094 10.9339 38.9741 11.5731 38.087 12.5835C37.6532 13.0772 37.321 13.6515 37.1093 14.2736C36.8976 14.8957 36.8107 15.5534 36.8533 16.2092C37.5222 16.2161 38.184 16.0711 38.7887 15.7852C39.3934 15.4992 39.9254 15.0798 40.3446 14.5585Z" fill="white"/>
<path d="M62.2031 30.6609H57.0976L55.8715 34.2812H53.709L58.5449 20.887H60.7916L65.6275 34.2812H63.4281L62.2031 30.6609ZM57.6263 28.9903H61.6733L59.6783 23.1148H59.6225L57.6263 28.9903Z" fill="white"/>
<path d="M76.0709 29.3989C76.0709 32.4335 74.4467 34.3833 71.9955 34.3833C71.3746 34.4157 70.7571 34.2727 70.2137 33.9706C69.6703 33.6684 69.223 33.2193 68.923 32.6747H68.8766V37.5117H66.8721V24.5156H68.8124V26.1398H68.8492C69.163 25.5979 69.6179 25.1511 70.1655 24.8471C70.713 24.5431 71.3327 24.3932 71.9587 24.4134C74.4371 24.4134 76.0709 26.3726 76.0709 29.3989ZM74.0106 29.3989C74.0106 27.4218 72.9888 26.1219 71.4299 26.1219C69.8983 26.1219 68.8682 27.4491 68.8682 29.3989C68.8682 31.3665 69.8983 32.6842 71.4299 32.6842C72.9888 32.6842 74.0106 31.3939 74.0106 29.3989Z" fill="white"/>
<path d="M86.8199 29.3989C86.8199 32.4335 85.1957 34.3833 82.7446 34.3833C82.1237 34.4157 81.5061 34.2727 80.9627 33.9705C80.4193 33.6684 79.972 33.2193 79.672 32.6747H79.6256V37.5117H77.6211V24.5156H79.5613V26.1398H79.5982C79.912 25.5979 80.3669 25.1511 80.9145 24.8471C81.462 24.5431 82.0817 24.3932 82.7077 24.4134C85.1862 24.4134 86.8199 26.3726 86.8199 29.3989ZM84.7596 29.3989C84.7596 27.4218 83.7378 26.1219 82.1789 26.1219C80.6474 26.1219 79.6172 27.4491 79.6172 29.3989C79.6172 31.3665 80.6474 32.6842 82.1789 32.6842C83.7379 32.6842 84.7596 31.3939 84.7596 29.3989H84.7596Z" fill="white"/>
<path d="M93.923 30.5492C94.0716 31.8775 95.3619 32.7496 97.1252 32.7496C98.8147 32.7496 100.03 31.8774 100.03 30.6798C100.03 29.6401 99.2972 29.0176 97.5613 28.591L95.8254 28.1728C93.3658 27.5787 92.224 26.4285 92.224 24.562C92.224 22.251 94.238 20.6636 97.0978 20.6636C99.9281 20.6636 101.868 22.251 101.934 24.562H99.9102C99.789 23.2253 98.6841 22.4184 97.0693 22.4184C95.4546 22.4184 94.3496 23.2348 94.3496 24.4229C94.3496 25.3699 95.0553 25.9271 96.7818 26.3537L98.2575 26.716C101.006 27.3659 102.147 28.4699 102.147 30.429C102.147 32.9349 100.151 34.5044 96.9766 34.5044C94.0062 34.5044 92.0007 32.9718 91.8711 30.5491L93.923 30.5492Z" fill="white"/>
<path d="M106.474 22.2046V24.5156H108.331V26.103H106.474V31.4866C106.474 32.323 106.846 32.7127 107.662 32.7127C107.883 32.7088 108.103 32.6934 108.322 32.6663V34.2442C107.955 34.3128 107.581 34.3438 107.208 34.3369C105.231 34.3369 104.46 33.5943 104.46 31.7004V26.103H103.04V24.5156H104.46V22.2046H106.474Z" fill="white"/>
<path d="M109.406 29.3989C109.406 26.3263 111.216 24.3955 114.038 24.3955C116.869 24.3955 118.67 26.3262 118.67 29.3989C118.67 32.4799 116.879 34.4022 114.038 34.4022C111.198 34.4022 109.406 32.4799 109.406 29.3989ZM116.628 29.3989C116.628 27.2911 115.662 26.0471 114.038 26.0471C112.413 26.0471 111.449 27.3006 111.449 29.3989C111.449 31.515 112.413 32.7495 114.038 32.7495C115.662 32.7495 116.628 31.515 116.628 29.3989H116.628Z" fill="white"/>
<path d="M120.323 24.5158H122.235V26.1779H122.281C122.411 25.6588 122.715 25.2 123.143 24.8787C123.57 24.5574 124.096 24.3931 124.63 24.4136C124.861 24.4128 125.092 24.4378 125.317 24.4884V26.3633C125.026 26.2742 124.721 26.2333 124.417 26.2422C124.125 26.2304 123.835 26.2817 123.566 26.3927C123.296 26.5036 123.054 26.6716 122.855 26.8851C122.657 27.0985 122.507 27.3524 122.416 27.6292C122.325 27.9061 122.295 28.1994 122.328 28.4889V34.2812H120.323L120.323 24.5158Z" fill="white"/>
<path d="M134.558 31.4128C134.288 33.1856 132.562 34.4022 130.353 34.4022C127.512 34.4022 125.749 32.4988 125.749 29.4452C125.749 26.3821 127.522 24.3955 130.269 24.3955C132.971 24.3955 134.67 26.2515 134.67 29.2124V29.8992H127.772V30.0203C127.741 30.3797 127.786 30.7418 127.904 31.0825C128.023 31.4231 128.213 31.7346 128.462 31.9962C128.71 32.2578 129.012 32.4636 129.346 32.5998C129.68 32.7361 130.039 32.7997 130.4 32.7864C130.873 32.8308 131.349 32.7211 131.755 32.4736C132.161 32.2261 132.477 31.8541 132.655 31.4128L134.558 31.4128ZM127.782 28.4983H132.664C132.682 28.1751 132.633 27.8517 132.52 27.5484C132.407 27.2451 132.233 26.9684 132.008 26.7357C131.783 26.5029 131.513 26.3192 131.213 26.196C130.914 26.0728 130.592 26.0128 130.269 26.0198C129.942 26.0178 129.619 26.0805 129.317 26.2043C129.015 26.328 128.74 26.5104 128.509 26.7408C128.278 26.9713 128.095 27.2452 127.97 27.5468C127.845 27.8485 127.781 28.1718 127.782 28.4983V28.4983Z" fill="white"/>
<path d="M57.3765 10.8047C57.7968 10.7745 58.2185 10.838 58.6112 10.9905C59.0039 11.1431 59.3579 11.3809 59.6476 11.6868C59.9373 11.9928 60.1555 12.3592 60.2865 12.7596C60.4174 13.1601 60.4579 13.5846 60.4049 14.0026C60.4049 16.0587 59.2936 17.2406 57.3765 17.2406H55.0518V10.8047H57.3765ZM56.0514 16.3304H57.2649C57.5652 16.3484 57.8657 16.2991 58.1445 16.1863C58.4234 16.0735 58.6736 15.8999 58.8769 15.6781C59.0802 15.4564 59.2315 15.1921 59.3198 14.9046C59.4081 14.617 59.4312 14.3133 59.3873 14.0157C59.428 13.7193 59.4026 13.4175 59.313 13.132C59.2233 12.8466 59.0716 12.5845 58.8688 12.3645C58.6659 12.1445 58.4169 11.9722 58.1396 11.8597C57.8624 11.7473 57.5636 11.6976 57.2649 11.7142H56.0514V16.3304Z" fill="white"/>
<path d="M61.5343 14.8101C61.5038 14.4909 61.5403 14.1689 61.6415 13.8646C61.7427 13.5604 61.9064 13.2807 62.1221 13.0434C62.3378 12.8061 62.6006 12.6165 62.8939 12.4868C63.1871 12.3571 63.5042 12.29 63.8248 12.29C64.1455 12.29 64.4626 12.3571 64.7558 12.4868C65.049 12.6165 65.3119 12.8061 65.5275 13.0434C65.7432 13.2807 65.9069 13.5604 66.0081 13.8646C66.1093 14.1689 66.1458 14.4909 66.1153 14.8101C66.1464 15.1296 66.1103 15.4521 66.0094 15.7568C65.9084 16.0616 65.7448 16.3418 65.5291 16.5796C65.3134 16.8173 65.0503 17.0073 64.7568 17.1373C64.4633 17.2673 64.1458 17.3345 63.8248 17.3345C63.5038 17.3345 63.1863 17.2673 62.8928 17.1373C62.5993 17.0073 62.3362 16.8173 62.1205 16.5796C61.9048 16.3418 61.7412 16.0616 61.6402 15.7568C61.5393 15.4521 61.5032 15.1296 61.5343 14.8101ZM65.1294 14.8101C65.1294 13.7573 64.6564 13.1416 63.8264 13.1416C62.9932 13.1416 62.5245 13.7573 62.5245 14.8101C62.5245 15.8714 62.9932 16.4823 63.8264 16.4823C64.6564 16.4823 65.1294 15.8671 65.1294 14.8101H65.1294Z" fill="white"/>
<path d="M72.205 17.2407H71.2106L70.2068 13.6636H70.131L69.1313 17.2407H68.1465L66.8077 12.3838H67.7799L68.65 16.0899H68.7216L69.7202 12.3838H70.6397L71.6383 16.0899H71.7141L72.58 12.3838H73.5385L72.205 17.2407Z" fill="white"/>
<path d="M74.6641 12.3839H75.5868V13.1555H75.6585C75.78 12.8784 75.9849 12.6461 76.2447 12.491C76.5045 12.3359 76.8063 12.2657 77.1079 12.2902C77.3442 12.2724 77.5815 12.308 77.8022 12.3944C78.0229 12.4808 78.2213 12.6158 78.3827 12.7893C78.5442 12.9627 78.6645 13.1703 78.7349 13.3967C78.8052 13.623 78.8237 13.8622 78.789 14.0967V17.2408H77.8305V14.3374C77.8305 13.5568 77.4913 13.1687 76.7824 13.1687C76.6219 13.1612 76.4618 13.1885 76.3129 13.2487C76.1639 13.3089 76.0298 13.4007 75.9197 13.5176C75.8095 13.6345 75.7259 13.7738 75.6747 13.926C75.6234 14.0783 75.6057 14.2398 75.6227 14.3995V17.2409H74.6641L74.6641 12.3839Z" fill="white"/>
<path d="M80.3165 10.4878H81.275V17.2407H80.3165V10.4878Z" fill="white"/>
<path d="M82.6077 14.8102C82.5772 14.491 82.6137 14.1689 82.7149 13.8647C82.8162 13.5604 82.9799 13.2807 83.1956 13.0434C83.4113 12.8061 83.6742 12.6165 83.9674 12.4868C84.2606 12.3571 84.5778 12.29 84.8984 12.29C85.2191 12.29 85.5362 12.3571 85.8294 12.4868C86.1227 12.6165 86.3856 12.8061 86.6013 13.0434C86.8169 13.2807 86.9807 13.5604 87.0819 13.8647C87.1831 14.1689 87.2197 14.491 87.1892 14.8102C87.2202 15.1297 87.1841 15.4522 87.0831 15.7569C86.9822 16.0617 86.8185 16.3419 86.6028 16.5796C86.3871 16.8174 86.124 17.0074 85.8305 17.1374C85.5369 17.2674 85.2195 17.3345 84.8984 17.3345C84.5774 17.3345 84.2599 17.2674 83.9664 17.1374C83.6728 17.0074 83.4098 16.8174 83.194 16.5796C82.9783 16.3419 82.8147 16.0617 82.7137 15.7569C82.6127 15.4522 82.5766 15.1297 82.6077 14.8102ZM86.2027 14.8102C86.2027 13.7574 85.7298 13.1417 84.8997 13.1417C84.0665 13.1417 83.5978 13.7574 83.5978 14.8102C83.5978 15.8714 84.0666 16.4824 84.8997 16.4824C85.7298 16.4824 86.2027 15.8672 86.2027 14.8102H86.2027Z" fill="white"/>
<path d="M88.1984 15.8672C88.1984 14.9929 88.8493 14.4889 90.0048 14.4172L91.3205 14.3414V13.9222C91.3205 13.4092 90.9813 13.1195 90.3261 13.1195C89.791 13.1195 89.4202 13.316 89.3138 13.6594H88.3859C88.4838 12.8251 89.2686 12.29 90.3703 12.29C91.588 12.29 92.2748 12.8962 92.2748 13.9222V17.2407H91.3521V16.5582H91.2762C91.1223 16.803 90.9061 17.0026 90.6498 17.1366C90.3935 17.2705 90.1062 17.3341 89.8173 17.3207C89.6134 17.342 89.4074 17.3202 89.2124 17.2569C89.0174 17.1936 88.8379 17.0901 88.6854 16.9532C88.5328 16.8162 88.4107 16.6488 88.3268 16.4618C88.2429 16.2747 88.1992 16.0722 88.1984 15.8672ZM91.3205 15.4521V15.0461L90.1344 15.1219C89.4655 15.1667 89.1622 15.3942 89.1622 15.8224C89.1622 16.2595 89.5414 16.5139 90.0628 16.5139C90.2156 16.5294 90.3699 16.5139 90.5166 16.4685C90.6633 16.4231 90.7994 16.3487 90.9167 16.2496C91.0341 16.1506 91.1303 16.0289 91.1996 15.8919C91.269 15.7549 91.3101 15.6054 91.3205 15.4521Z" fill="white"/>
<path d="M93.5342 14.8102C93.5342 13.2755 94.3232 12.3032 95.5503 12.3032C95.8539 12.2892 96.1551 12.362 96.4189 12.5128C96.6826 12.6637 96.898 12.8866 97.0397 13.1553H97.1114V10.4878H98.0699V17.2407H97.1514V16.4734H97.0756C96.9228 16.7403 96.7 16.9604 96.4311 17.1098C96.1623 17.2591 95.8577 17.3321 95.5503 17.3208C94.3148 17.3208 93.5342 16.3486 93.5342 14.8102ZM94.5244 14.8102C94.5244 15.8403 95.01 16.4602 95.8221 16.4602C96.63 16.4602 97.1293 15.8314 97.1293 14.8144C97.1293 13.8021 96.6248 13.1643 95.8221 13.1643C95.0152 13.1643 94.5244 13.7884 94.5244 14.8102H94.5244Z" fill="white"/>
<path d="M102.035 14.8101C102.005 14.4909 102.041 14.1689 102.143 13.8646C102.244 13.5604 102.407 13.2807 102.623 13.0434C102.839 12.8061 103.102 12.6165 103.395 12.4868C103.688 12.3571 104.005 12.29 104.326 12.29C104.646 12.29 104.964 12.3571 105.257 12.4868C105.55 12.6165 105.813 12.8061 106.029 13.0434C106.244 13.2807 106.408 13.5604 106.509 13.8646C106.61 14.1689 106.647 14.4909 106.616 14.8101C106.647 15.1296 106.611 15.4521 106.51 15.7568C106.409 16.0616 106.246 16.3418 106.03 16.5796C105.814 16.8173 105.551 17.0073 105.258 17.1373C104.964 17.2673 104.647 17.3345 104.326 17.3345C104.005 17.3345 103.687 17.2673 103.394 17.1373C103.1 17.0073 102.837 16.8173 102.621 16.5796C102.406 16.3418 102.242 16.0616 102.141 15.7568C102.04 15.4521 102.004 15.1296 102.035 14.8101ZM105.63 14.8101C105.63 13.7573 105.157 13.1416 104.327 13.1416C103.494 13.1416 103.025 13.7573 103.025 14.8101C103.025 15.8714 103.494 16.4823 104.327 16.4823C105.157 16.4823 105.63 15.8671 105.63 14.8101Z" fill="white"/>
<path d="M107.902 12.3839H108.825V13.1555H108.897C109.018 12.8784 109.223 12.6461 109.483 12.491C109.743 12.3359 110.045 12.2657 110.346 12.2902C110.582 12.2724 110.82 12.308 111.04 12.3944C111.261 12.4808 111.46 12.6158 111.621 12.7893C111.782 12.9627 111.903 13.1703 111.973 13.3967C112.043 13.623 112.062 13.8622 112.027 14.0967V17.2408H111.069V14.3374C111.069 13.5568 110.73 13.1687 110.021 13.1687C109.86 13.1612 109.7 13.1885 109.551 13.2487C109.402 13.3089 109.268 13.4007 109.158 13.5176C109.048 13.6345 108.964 13.7738 108.913 13.926C108.862 14.0783 108.844 14.2398 108.861 14.3995V17.2409H107.902V12.3839Z" fill="white"/>
<path d="M117.444 11.1746V12.4059H118.496V13.2133H117.444V15.7108C117.444 16.2195 117.653 16.4423 118.13 16.4423C118.253 16.4419 118.375 16.4345 118.496 16.4202V17.2186C118.324 17.2494 118.149 17.2658 117.975 17.2676C116.909 17.2676 116.484 16.8926 116.484 15.9562V13.2133H115.713V12.4059H116.484V11.1746H117.444Z" fill="white"/>
<path d="M119.806 10.4878H120.756V13.1643H120.832C120.959 12.8846 121.17 12.651 121.435 12.4953C121.7 12.3396 122.006 12.2694 122.313 12.2943C122.548 12.2815 122.783 12.3207 123.001 12.4092C123.219 12.4977 123.415 12.6333 123.575 12.8062C123.735 12.9792 123.854 13.1852 123.925 13.4097C123.996 13.6342 124.017 13.8716 123.985 14.105V17.2407H123.026V14.3414C123.026 13.5656 122.664 13.1727 121.987 13.1727C121.822 13.1592 121.657 13.1819 121.502 13.2391C121.347 13.2963 121.206 13.3867 121.089 13.504C120.973 13.6213 120.883 13.7626 120.827 13.9181C120.771 14.0736 120.75 14.2394 120.764 14.4041V17.2407H119.806L119.806 10.4878Z" fill="white"/>
<path d="M129.574 15.9294C129.444 16.3733 129.162 16.7573 128.777 17.0141C128.392 17.271 127.929 17.3844 127.469 17.3345C127.149 17.343 126.831 17.2817 126.538 17.1549C126.244 17.0282 125.981 16.839 125.767 16.6004C125.554 16.3619 125.395 16.0798 125.301 15.7737C125.208 15.4675 125.182 15.1447 125.226 14.8276C125.183 14.5095 125.209 14.186 125.303 13.879C125.396 13.5719 125.554 13.2885 125.767 13.0479C125.979 12.8073 126.24 12.6151 126.534 12.4844C126.827 12.3536 127.144 12.2874 127.465 12.2901C128.817 12.2901 129.632 13.2134 129.632 14.7386V15.0731H126.202V15.1268C126.187 15.305 126.21 15.4844 126.268 15.6535C126.326 15.8226 126.42 15.9776 126.541 16.1086C126.663 16.2396 126.811 16.3437 126.975 16.4142C127.14 16.4848 127.317 16.5202 127.496 16.5182C127.725 16.5457 127.957 16.5044 128.163 16.3996C128.369 16.2947 128.539 16.1311 128.651 15.9294L129.574 15.9294ZM126.202 14.3641H128.655C128.668 14.2011 128.645 14.0374 128.59 13.8835C128.535 13.7295 128.449 13.5888 128.336 13.4703C128.224 13.3518 128.088 13.2582 127.937 13.1954C127.786 13.1327 127.623 13.1022 127.46 13.1059C127.294 13.1038 127.13 13.135 126.976 13.1975C126.823 13.26 126.683 13.3526 126.566 13.4698C126.449 13.5871 126.356 13.7266 126.294 13.8802C126.231 14.0338 126.2 14.1984 126.202 14.3641H126.202Z" fill="white"/>
</g>
<defs>
<clipPath id="clip0_60_6263">
<rect width="161.999" height="47.9997" rx="23.9999" fill="white"/>
</clipPath>
</defs>
</svg>