<svg width="162" height="48" viewBox="0 0 162 48" fill="none" xmlns="http://www.w3.org/2000/svg">
<g clip-path="url(#clip0_60_6240)">
<g opacity="0.12">
<path d="M156 0H6.00094C2.68725 0 0.000976562 2.68628 0.000976562 5.99996V41.9997C0.000976562 45.3134 2.68725 47.9997 6.00094 47.9997H156C159.314 47.9997 162 45.3134 162 41.9997V5.99996C162 2.68628 159.314 0 156 0Z" fill="white"/>
<path d="M156 0.959998C157.336 0.961542 158.617 1.49307 159.562 2.43797C160.507 3.38287 161.038 4.66397 161.04 6.00021V42C161.038 43.3362 160.507 44.6173 159.562 45.5622C158.617 46.5071 157.336 47.0386 156 47.0402H6.00094C4.66469 47.0387 3.38361 46.5071 2.43876 45.5622C1.49391 44.6173 0.962448 43.3362 0.960971 42V6.00021C0.962425 4.66395 1.49388 3.38283 2.43874 2.43793C3.38359 1.49303 4.66468 0.961517 6.00094 0.959998H156ZM156 0.000244141H6.00094C4.41108 0.00489783 2.88767 0.638529 1.76347 1.76273C0.639262 2.88694 0.00563025 4.41035 0.000976563 6.00021L0.000976562 42C0.00563025 43.5898 0.639262 45.1133 1.76347 46.2375C2.88767 47.3617 4.41108 47.9953 6.00094 48H156C157.59 47.9953 159.113 47.3617 160.237 46.2375C161.362 45.1133 161.995 43.5898 162 42V6.00021C161.995 4.41035 161.362 2.88694 160.237 1.76273C159.113 0.638529 157.59 0.00489783 156 0.000244141V0.000244141Z" fill="white"/>
</g>
<path d="M59.4275 13.8506C59.4456 14.2147 59.3893 14.5787 59.2622 14.9204C59.1351 15.2621 58.9397 15.5744 58.688 15.8381C58.406 16.1307 58.0654 16.3603 57.6885 16.5121C57.3116 16.6639 56.9068 16.7344 56.5008 16.7191C56.0922 16.7227 55.6869 16.6447 55.3089 16.4895C54.9309 16.3343 54.5877 16.1051 54.2995 15.8153C54.0113 15.5256 53.7839 15.1812 53.6308 14.8023C53.4776 14.4235 53.4017 14.0178 53.4075 13.6092C53.4017 13.2006 53.4777 12.795 53.6309 12.4161C53.784 12.0372 54.0114 11.6928 54.2996 11.403C54.5877 11.1133 54.9309 10.884 55.3089 10.7288C55.6869 10.5735 56.0922 10.4953 56.5008 10.4989C56.9209 10.4976 57.3369 10.5826 57.7229 10.7485C58.0814 10.8938 58.4005 11.1217 58.6542 11.4137L58.1308 11.9375C57.9314 11.7028 57.6807 11.517 57.3981 11.3945C57.1154 11.272 56.8085 11.2161 56.5008 11.2311C56.1911 11.2295 55.8843 11.2904 55.5987 11.4102C55.3131 11.5299 55.0546 11.7061 54.8387 11.9282C54.6228 12.1502 54.454 12.4136 54.3423 12.7024C54.2306 12.9913 54.1783 13.2997 54.1886 13.6092C54.1812 14.0728 54.3117 14.5282 54.5635 14.9176C54.8152 15.307 55.1769 15.6128 55.6027 15.7964C56.0286 15.9799 56.4993 16.0329 56.9552 15.9485C57.4112 15.8642 57.8318 15.6463 58.1638 15.3226C58.4693 14.9934 58.6464 14.5654 58.6628 14.1165H56.5008V13.4013H59.3859C59.4131 13.5495 59.4271 13.6999 59.4275 13.8506V13.8506Z" fill="white" stroke="white" stroke-width="0.19847" stroke-miterlimit="10"/>
<path d="M64.0016 11.3637H61.2901V13.2515H63.7351V13.9668H61.2901V15.8545H64.0016V16.5862H60.5255V10.6321H64.0016V11.3637Z" fill="white" stroke="white" stroke-width="0.19847" stroke-miterlimit="10"/>
<path d="M67.2274 16.5862H66.4618V11.3637H64.7988V10.6321H68.8904V11.3637H67.2274V16.5862Z" fill="white" stroke="white" stroke-width="0.19847" stroke-miterlimit="10"/>
<path d="M71.8506 16.5862V10.6321H72.6152V16.5862H71.8506Z" fill="white" stroke="white" stroke-width="0.19847" stroke-miterlimit="10"/>
<path d="M76.0086 16.5862H75.243V11.3637H73.5801V10.6321H77.6716V11.3637H76.0086V16.5862Z" fill="white" stroke="white" stroke-width="0.19847" stroke-miterlimit="10"/>
<path d="M85.4174 15.8167C84.8379 16.3945 84.0529 16.7189 83.2345 16.7189C82.4162 16.7189 81.6312 16.3945 81.0516 15.8167C80.7649 15.5263 80.5396 15.1812 80.3889 14.802C80.2382 14.4227 80.1654 14.0171 80.1746 13.6091C80.1654 13.2011 80.2382 12.7955 80.3889 12.4162C80.5396 12.037 80.7649 11.6919 81.0516 11.4015C81.3381 11.115 81.6782 10.8878 82.0526 10.7329C82.427 10.578 82.8282 10.4984 83.2334 10.4988C83.6386 10.4991 84.0397 10.5794 84.4138 10.735C84.7879 10.8905 85.1276 11.1184 85.4135 11.4054C85.7004 11.695 85.9263 12.0393 86.0776 12.4179C86.2289 12.7964 86.3027 13.2015 86.2944 13.6091C86.3035 14.017 86.2305 14.4226 86.0798 14.8018C85.9292 15.1811 85.7039 15.5262 85.4174 15.8167V15.8167ZM81.6166 15.3181C82.0458 15.7466 82.6275 15.9873 83.234 15.9873C83.8405 15.9873 84.4222 15.7466 84.8515 15.3181C85.0716 15.0928 85.2437 14.8252 85.3575 14.5314C85.4712 14.2377 85.5243 13.9239 85.5134 13.6091C85.5243 13.2943 85.4712 12.9805 85.3575 12.6868C85.2437 12.3931 85.0716 12.1254 84.8515 11.9001C84.4222 11.4716 83.8405 11.2309 83.234 11.2309C82.6275 11.2309 82.0458 11.4716 81.6166 11.9001C81.3968 12.1256 81.2249 12.3933 81.1114 12.687C80.9978 12.9807 80.9448 13.2944 80.9557 13.6091C80.9448 13.9238 80.9978 14.2375 81.1114 14.5312C81.2249 14.8249 81.3968 15.0926 81.6166 15.3181V15.3181Z" fill="white" stroke="white" stroke-width="0.19847" stroke-miterlimit="10"/>
<path d="M87.3691 16.5862V10.6321H88.3005L91.1942 15.2639H91.2271L91.1942 14.1164V10.6321H91.9598V16.5862H91.1612L88.1337 11.73H88.1008L88.1337 12.8775V16.5862H87.3691Z" fill="white" stroke="white" stroke-width="0.19847" stroke-miterlimit="10"/>
<path d="M79.9848 25.2709C79.1507 25.2741 78.3363 25.5243 77.6443 25.99C76.9523 26.4557 76.4138 27.1159 76.0969 27.8874C75.7799 28.659 75.6986 29.5071 75.8632 30.3248C76.0279 31.1424 76.4311 31.893 77.022 32.4816C77.6129 33.0703 78.365 33.4707 79.1833 33.6322C80.0016 33.7938 80.8494 33.7093 81.6197 33.3893C82.39 33.0694 83.0482 32.5284 83.5113 31.8347C83.9743 31.1409 84.2215 30.3256 84.2215 29.4915C84.2297 28.9336 84.1255 28.3798 83.9153 27.8629C83.7051 27.3461 83.3931 26.8769 82.9978 26.4831C82.6026 26.0893 82.1321 25.7791 81.6145 25.5708C81.0969 25.3626 80.5427 25.2606 79.9848 25.2709V25.2709ZM79.9848 32.0495C79.4711 32.0861 78.9583 31.9672 78.5132 31.7083C78.068 31.4494 77.7111 31.0625 77.4889 30.5979C77.2668 30.1334 77.1896 29.6126 77.2675 29.1036C77.3454 28.5946 77.5748 28.1208 77.9257 27.7439C78.2767 27.367 78.7329 27.1045 79.2351 26.9906C79.7374 26.8767 80.2622 26.9166 80.7414 27.1052C81.2206 27.2938 81.632 27.6222 81.9219 28.0479C82.2118 28.4735 82.3668 28.9765 82.3669 29.4915C82.3824 29.8168 82.3328 30.142 82.2208 30.4478C82.1088 30.7537 81.9368 31.034 81.7148 31.2724C81.4929 31.5108 81.2255 31.7023 80.9283 31.8357C80.6312 31.9692 80.3104 32.0419 79.9848 32.0495V32.0495ZM70.7426 25.2709C69.9085 25.274 69.0941 25.5242 68.4021 25.9899C67.7101 26.4556 67.1716 27.1159 66.8546 27.8874C66.5376 28.6589 66.4563 29.507 66.6209 30.3247C66.7856 31.1424 67.1888 31.8929 67.7797 32.4816C68.3706 33.0703 69.1227 33.4707 69.941 33.6322C70.7593 33.7938 71.6071 33.7093 72.3774 33.3894C73.1477 33.0694 73.8059 32.5284 74.269 31.8347C74.7321 31.141 74.9792 30.3256 74.9792 29.4915C74.9874 28.9336 74.8833 28.3798 74.6731 27.863C74.4629 27.3461 74.1508 26.8769 73.7556 26.4831C73.3603 26.0893 72.8899 25.7791 72.3723 25.5709C71.8547 25.3626 71.3005 25.2606 70.7426 25.2709V25.2709ZM70.7426 32.0495C70.229 32.0861 69.7162 31.9672 69.271 31.7083C68.8259 31.4494 68.469 31.0625 68.2468 30.5979C68.0246 30.1334 67.9474 29.6126 68.0253 29.1036C68.1032 28.5946 68.3326 28.1208 68.6835 27.7439C69.0345 27.367 69.4908 27.1045 69.993 26.9906C70.4952 26.8767 71.0201 26.9166 71.4993 27.1052C71.9785 27.2938 72.3898 27.6222 72.6797 28.0479C72.9696 28.4735 73.1247 28.9765 73.1247 29.4915C73.1403 29.8168 73.0906 30.142 72.9787 30.4478C72.8667 30.7537 72.6946 31.034 72.4727 31.2724C72.2507 31.5108 71.9833 31.7023 71.6862 31.8358C71.3891 31.9692 71.0683 32.0419 70.7426 32.0495ZM59.7486 26.5659V28.3564H64.0332C63.9714 29.1963 63.6278 29.9906 63.058 30.6106C62.6286 31.0483 62.1122 31.3911 61.5422 31.6169C60.9722 31.8427 60.3612 31.9465 59.7486 31.9215C58.4962 31.9046 57.3009 31.3952 56.4212 30.5036C55.5416 29.612 55.0484 28.4098 55.0484 27.1574C55.0484 25.9049 55.5416 24.7028 56.4212 23.8111C57.3009 22.9195 58.4962 22.4101 59.7486 22.3932C60.9515 22.3775 62.1121 22.8371 62.9781 23.6721L64.241 22.4092C63.6502 21.8242 62.9484 21.3631 62.177 21.0528C61.4055 20.7426 60.5799 20.5895 59.7486 20.6026C58.8797 20.5899 58.0171 20.7501 57.2107 21.0739C56.4044 21.3976 55.6704 21.8784 55.0516 22.4883C54.4327 23.0982 53.9413 23.8251 53.6058 24.6267C53.2704 25.4282 53.0977 26.2885 53.0977 27.1574C53.0977 28.0263 53.2704 28.8865 53.6058 29.6881C53.9413 30.4896 54.4327 31.2165 55.0516 31.8264C55.6704 32.4363 56.4044 32.9171 57.2107 33.2409C58.0171 33.5646 58.8797 33.7248 59.7486 33.7121C60.5975 33.7473 61.4442 33.6016 62.2325 33.2847C63.0208 32.9677 63.7327 32.4867 64.3209 31.8736C65.3653 30.7337 65.9219 29.2302 65.8718 27.685C65.8759 27.3097 65.8437 26.935 65.7757 26.5659H59.7486ZM104.71 27.9567C104.457 27.1922 103.974 26.5244 103.327 26.0438C102.681 25.5633 101.902 25.2935 101.097 25.2709C100.555 25.2743 100.019 25.3876 99.5217 25.6039C99.0244 25.8203 98.5762 26.1353 98.2041 26.5298C97.832 26.9243 97.5438 27.3901 97.3569 27.8992C97.1699 28.4082 97.0881 28.9499 97.1165 29.4915C97.1043 30.0464 97.204 30.598 97.4098 31.1135C97.6155 31.629 97.9231 32.0978 98.3141 32.4917C98.705 32.8857 99.1714 33.1968 99.6853 33.4065C100.199 33.6162 100.75 33.7201 101.305 33.7121C102 33.716 102.686 33.5471 103.3 33.2206C103.914 32.8941 104.437 32.4203 104.822 31.8417L103.383 30.8825C103.168 31.2404 102.863 31.5362 102.499 31.7408C102.134 31.9454 101.723 32.0518 101.305 32.0495C100.875 32.0659 100.45 31.9528 100.085 31.7247C99.7203 31.4967 99.4323 31.1642 99.2587 30.7705L104.902 28.4364L104.71 27.9567ZM98.955 29.3637C98.9351 29.0565 98.9767 28.7484 99.0773 28.4575C99.178 28.1666 99.3356 27.8986 99.541 27.6694C99.7465 27.4401 99.9956 27.2541 100.274 27.1223C100.552 26.9905 100.854 26.9155 101.161 26.9016C101.481 26.8806 101.801 26.9542 102.079 27.1134C102.358 27.2726 102.584 27.5104 102.728 27.7969L98.955 29.3637ZM94.3666 33.4563H96.2211V21.0503H94.3666V33.4563ZM91.329 26.2141H91.2651C90.9831 25.9078 90.639 25.6652 90.2558 25.5025C89.8726 25.3399 89.459 25.2609 89.0428 25.2709C87.9545 25.3172 86.9261 25.7821 86.1724 26.5686C85.4188 27.355 84.998 28.4022 84.998 29.4915C84.998 30.5808 85.4188 31.628 86.1724 32.4145C86.9261 33.2009 87.9545 33.6658 89.0428 33.7121C89.4607 33.7233 89.8759 33.6432 90.2597 33.4776C90.6435 33.3119 90.9866 33.0646 91.2651 32.7529H91.329V33.3605C91.329 34.9752 90.4657 35.8385 89.0748 35.8385C88.6112 35.8274 88.1614 35.6785 87.7828 35.4109C87.4041 35.1432 87.1137 34.7689 86.9485 34.3356L85.3338 35.0072C85.6381 35.7481 86.1568 36.3813 86.8233 36.8257C87.4898 37.27 88.2737 37.5052 89.0748 37.5011C91.2491 37.5011 93.0876 36.2222 93.0876 33.1046V25.5266H91.329V26.2141ZM89.2028 32.0495C88.5618 31.9951 87.9645 31.7021 87.5293 31.2284C87.0941 30.7547 86.8525 30.1348 86.8525 29.4915C86.8525 28.8482 87.0941 28.2284 87.5293 27.7547C87.9645 27.281 88.5618 26.9879 89.2028 26.9336C89.5217 26.9492 89.8342 27.0288 90.1216 27.1677C90.4091 27.3066 90.6657 27.502 90.876 27.7422C91.0864 27.9824 91.2462 28.2625 91.346 28.5657C91.4458 28.869 91.4835 29.1893 91.4569 29.5074C91.4818 29.8236 91.4427 30.1416 91.3419 30.4424C91.2412 30.7431 91.0807 31.0204 90.8703 31.2577C90.6599 31.495 90.4037 31.6875 90.1172 31.8235C89.8307 31.9595 89.5197 32.0364 89.2028 32.0495V32.0495ZM113.397 21.0505H108.96V33.4563H110.812V28.7561H113.397C113.921 28.7848 114.445 28.7065 114.938 28.5258C115.43 28.3452 115.88 28.066 116.261 27.7055C116.642 27.3449 116.946 26.9104 117.153 26.4286C117.36 25.9468 117.467 25.4278 117.467 24.9033C117.467 24.3788 117.36 23.8598 117.153 23.378C116.946 22.8963 116.642 22.4618 116.261 22.1012C115.88 21.7406 115.43 21.4615 114.938 21.2808C114.445 21.1002 113.921 21.0218 113.397 21.0505V21.0505ZM113.445 27.0296H110.812V22.7771H113.445C113.728 22.7713 114.009 22.8219 114.272 22.9261C114.536 23.0304 114.775 23.186 114.977 23.3841C115.18 23.5821 115.34 23.8185 115.45 24.0794C115.559 24.3402 115.616 24.6204 115.616 24.9034C115.616 25.1864 115.559 25.4665 115.45 25.7274C115.34 25.9883 115.18 26.2247 114.977 26.4227C114.775 26.6207 114.536 26.7764 114.272 26.8806C114.009 26.9848 113.728 27.0355 113.445 27.0296V27.0296ZM124.889 25.2481C124.213 25.2086 123.54 25.3673 122.953 25.7047C122.366 26.0421 121.891 26.5435 121.585 27.1473L123.229 27.8336C123.392 27.5339 123.639 27.2882 123.939 27.1267C124.24 26.9651 124.581 26.8946 124.92 26.9239C125.39 26.878 125.859 27.0203 126.224 27.3194C126.589 27.6186 126.82 28.0503 126.868 28.5199V28.6476C126.273 28.3317 125.61 28.1672 124.936 28.1688C123.165 28.1688 121.361 29.1424 121.361 30.9618C121.379 31.3453 121.473 31.7214 121.638 32.0678C121.803 32.4142 122.037 32.7239 122.324 32.9784C122.611 33.2329 122.947 33.4272 123.31 33.5496C123.674 33.672 124.059 33.7201 124.442 33.691C124.908 33.7184 125.373 33.6204 125.788 33.4071C126.204 33.1937 126.555 32.8729 126.804 32.4781H126.868V33.4357H128.655V28.6795C128.655 26.477 127.011 25.2481 124.889 25.2481V25.2481ZM124.665 32.0471C124.059 32.0471 123.213 31.7439 123.213 30.9937C123.213 30.0362 124.266 29.669 125.176 29.669C125.767 29.6533 126.351 29.7966 126.868 30.084C126.8 30.6221 126.539 31.1174 126.134 31.4782C125.729 31.8391 125.208 32.0412 124.665 32.0471V32.0471ZM135.167 25.5194L133.044 30.8979H132.98L130.778 25.5194H128.783L132.087 33.0366L130.203 37.2182H132.134L137.226 25.5194H135.167ZM118.489 33.4563H120.34V21.0505H118.489V33.4563Z" fill="white"/>
<path d="M25.2016 12.3268C24.902 12.6851 24.7507 13.1444 24.7787 13.6107V33.8205C24.7506 34.2868 24.9019 34.7461 25.2016 35.1044L25.2692 35.1702L36.5904 23.8492V23.582L25.2692 12.2605L25.2016 12.3268Z" fill="url(#paint0_linear_60_6240)"/>
<path d="M40.3633 27.6244L36.5898 23.8491V23.582L40.3642 19.8076L40.4493 19.8561L44.9204 22.3966C46.1975 23.1222 46.1975 24.3094 44.9204 25.0354L40.4493 27.5759L40.3633 27.6244Z" fill="url(#paint1_linear_60_6240)"/>
<path d="M40.4504 27.5754L36.591 23.7156L25.2021 35.1043C25.4624 35.3338 25.7947 35.465 26.1415 35.4753C26.4883 35.4855 26.8278 35.3741 27.1011 35.1604L40.4504 27.5754Z" fill="url(#paint2_linear_60_6240)"/>
<path d="M40.4504 19.8556L27.1011 12.2706C26.8278 12.0569 26.4883 11.9455 26.1415 11.9557C25.7947 11.966 25.4624 12.0972 25.2021 12.3267L36.591 23.7155L40.4504 19.8556Z" fill="url(#paint3_linear_60_6240)"/>
<path opacity="0.2" d="M40.3653 27.4905L27.1011 35.0269C26.8383 35.227 26.5176 35.3362 26.1873 35.3379C25.857 35.3397 25.5351 35.234 25.2702 35.0367L25.2021 35.1048L25.2698 35.1707L25.2702 35.1702C25.5351 35.3676 25.857 35.4734 26.1873 35.4716C26.5176 35.4698 26.8384 35.3606 27.1011 35.1604L40.4504 27.5755L40.3653 27.4905Z" fill="black"/>
<path opacity="0.12" d="M25.2016 34.9713C24.902 34.613 24.7507 34.1537 24.7787 33.6875V33.821C24.7507 34.2872 24.902 34.7465 25.2016 35.1048L25.2697 35.0367L25.2016 34.9713Z" fill="black"/>
<path opacity="0.12" d="M44.9204 24.9015L40.3643 27.4906L40.4493 27.5755L44.9204 25.0351C45.1834 24.9209 45.411 24.7384 45.5795 24.5064C45.748 24.2744 45.8512 24.0015 45.8784 23.7161C45.8218 23.9745 45.7058 24.2163 45.5395 24.422C45.3732 24.6278 45.1613 24.792 44.9204 24.9015V24.9015Z" fill="black"/>
<path opacity="0.25" d="M27.1002 12.4047L44.9206 22.5297C45.1615 22.6393 45.3736 22.8035 45.5399 23.0094C45.7062 23.2153 45.8221 23.4571 45.8785 23.7157C45.8515 23.4302 45.7484 23.1571 45.5799 22.925C45.4114 22.6929 45.1837 22.5103 44.9206 22.3962L27.1002 12.2712C25.8231 11.5456 24.7783 12.1483 24.7783 13.6111V13.7447C24.7783 12.2819 25.8231 11.6792 27.1002 12.4047Z" fill="white"/>
</g>
<defs>
<linearGradient id="paint0_linear_60_6240" x1="35.5865" y1="13.3976" x2="20.2505" y2="28.7335" gradientUnits="userSpaceOnUse">
<stop stop-color="#00A0FF"/>
<stop offset="0.00657" stop-color="#00A1FF"/>
<stop offset="0.2601" stop-color="#00BEFF"/>
<stop offset="0.5122" stop-color="#00D2FF"/>
<stop offset="0.7604" stop-color="#00DFFF"/>
<stop offset="1" stop-color="#00E3FF"/>
</linearGradient>
<linearGradient id="paint1_linear_60_6240" x1="46.5832" y1="23.716" x2="24.4719" y2="23.716" gradientUnits="userSpaceOnUse">
<stop stop-color="#FFE000"/>
<stop offset="0.4087" stop-color="#FFBD00"/>
<stop offset="0.7754" stop-color="#FFA500"/>
<stop offset="1" stop-color="#FF9C00"/>
</linearGradient>
<linearGradient id="paint2_linear_60_6240" x1="38.3533" y1="25.8129" x2="17.5566" y2="46.6096" gradientUnits="userSpaceOnUse">
<stop stop-color="#FF3A44"/>
<stop offset="1" stop-color="#C31162"/>
</linearGradient>
<linearGradient id="paint3_linear_60_6240" x1="22.3346" y1="5.59943" x2="31.6212" y2="14.886" gradientUnits="userSpaceOnUse">
<stop stop-color="#32A071"/>
<stop offset="0.0685" stop-color="#2DA771"/>
<stop offset="0.4762" stop-color="#15CF74"/>
<stop offset="0.8009" stop-color="#06E775"/>
<stop offset="1" stop-color="#00F076"/>
</linearGradient>
<clipPath id="clip0_60_6240">
<rect x="0.000976562" width="161.999" height="47.9999" rx="24" fill="white"/>
</clipPath>
</defs>
</svg>
