<svg width="162" height="48" viewBox="0 0 162 48" fill="none" xmlns="http://www.w3.org/2000/svg">
<g clip-path="url(#clip0_60_6406)">
<g opacity="0.12">
<path d="M156 0H6.00094C2.68725 0 0.000976562 2.68628 0.000976562 5.99996V41.9997C0.000976562 45.3134 2.68725 47.9997 6.00094 47.9997H156C159.314 47.9997 162 45.3134 162 41.9997V5.99996C162 2.68628 159.314 0 156 0Z" fill="white"/>
<path d="M156 0.959998C157.336 0.961542 158.617 1.49307 159.562 2.43797C160.507 3.38287 161.038 4.66397 161.04 6.00021V42C161.038 43.3362 160.507 44.6173 159.562 45.5622C158.617 46.5071 157.336 47.0386 156 47.0402H6.00094C4.66469 47.0387 3.38361 46.5071 2.43876 45.5622C1.49391 44.6173 0.962448 43.3362 0.960971 42V6.00021C0.962425 4.66395 1.49388 3.38283 2.43874 2.43793C3.38359 1.49303 4.66468 0.961517 6.00094 0.959998H156ZM156 0.000244141H6.00094C4.41108 0.00489783 2.88767 0.638529 1.76347 1.76273C0.639262 2.88694 0.00563025 4.41035 0.000976563 6.00021L0.000976562 42C0.00563025 43.5898 0.639262 45.1133 1.76347 46.2375C2.88767 47.3617 4.41108 47.9953 6.00094 48H156C157.59 47.9953 159.113 47.3617 160.238 46.2375C161.362 45.1133 161.995 43.5898 162 42V6.00021C161.995 4.41035 161.362 2.88694 160.238 1.76273C159.113 0.638529 157.59 0.00489783 156 0.000244141Z" fill="white"/>
</g>
<path d="M59.4273 13.8506C59.4453 14.2147 59.3891 14.5787 59.2619 14.9204C59.1348 15.2621 58.9395 15.5744 58.6878 15.8381C58.4058 16.1307 58.0651 16.3603 57.6882 16.5121C57.3113 16.6639 56.9066 16.7344 56.5006 16.7191C56.0919 16.7227 55.6867 16.6447 55.3087 16.4895C54.9306 16.3343 54.5874 16.1051 54.2992 15.8153C54.0111 15.5256 53.7837 15.1812 53.6305 14.8023C53.4774 14.4235 53.4015 14.0178 53.4073 13.6092C53.4015 13.2006 53.4774 12.795 53.6306 12.4161C53.7838 12.0372 54.0111 11.6928 54.2993 11.403C54.5875 11.1133 54.9307 10.884 55.3087 10.7288C55.6867 10.5735 56.0919 10.4953 56.5006 10.4989C56.9207 10.4976 57.3366 10.5826 57.7226 10.7485C58.0811 10.8938 58.4002 11.1217 58.654 11.4137L58.1306 11.9375C57.9312 11.7028 57.6805 11.517 57.3978 11.3945C57.1152 11.272 56.8082 11.2161 56.5006 11.2311C56.1909 11.2295 55.884 11.2904 55.5984 11.4102C55.3128 11.5299 55.0544 11.7061 54.8385 11.9282C54.6226 12.1502 54.4537 12.4136 54.342 12.7024C54.2303 12.9913 54.1781 13.2997 54.1884 13.6092C54.181 14.0728 54.3114 14.5282 54.5632 14.9176C54.815 15.307 55.1767 15.6128 55.6025 15.7964C56.0283 15.9799 56.499 16.0329 56.955 15.9485C57.4109 15.8642 57.8316 15.6463 58.1635 15.3226C58.4691 14.9934 58.6462 14.5654 58.6626 14.1165H56.5006V13.4013H59.3856C59.4129 13.5495 59.4268 13.6999 59.4273 13.8506Z" fill="white" stroke="white" stroke-width="0.19847" stroke-miterlimit="10"/>
<path d="M64.0013 11.3637H61.2898V13.2515H63.7349V13.9668H61.2898V15.8545H64.0013V16.5862H60.5252V10.6321H64.0013V11.3637Z" fill="white" stroke="white" stroke-width="0.19847" stroke-miterlimit="10"/>
<path d="M67.2275 16.5862H66.4619V11.3637H64.7989V10.6321H68.8905V11.3637H67.2275V16.5862Z" fill="white" stroke="white" stroke-width="0.19847" stroke-miterlimit="10"/>
<path d="M71.85 16.5862V10.6321H72.6146V16.5862H71.85Z" fill="white" stroke="white" stroke-width="0.19847" stroke-miterlimit="10"/>
<path d="M76.0084 16.5862H75.2428V11.3637H73.5799V10.6321H77.6714V11.3637H76.0084V16.5862Z" fill="white" stroke="white" stroke-width="0.19847" stroke-miterlimit="10"/>
<path d="M85.417 15.8167C84.8375 16.3945 84.0525 16.7189 83.2342 16.7189C82.4158 16.7189 81.6308 16.3945 81.0513 15.8167C80.7646 15.5263 80.5392 15.1812 80.3885 14.802C80.2379 14.4227 80.165 14.0171 80.1742 13.6091C80.165 13.2011 80.2379 12.7955 80.3885 12.4162C80.5392 12.037 80.7646 11.6919 81.0513 11.4015C81.3377 11.115 81.6779 10.8878 82.0523 10.7329C82.4266 10.578 82.8279 10.4984 83.233 10.4988C83.6382 10.4991 84.0393 10.5794 84.4134 10.735C84.7875 10.8905 85.1272 11.1184 85.4132 11.4054C85.7001 11.695 85.9259 12.0393 86.0772 12.4179C86.2285 12.7964 86.3023 13.2015 86.2941 13.6091C86.3031 14.017 86.2301 14.4226 86.0794 14.8018C85.9288 15.1811 85.7035 15.5262 85.417 15.8167ZM81.6162 15.3181C82.0455 15.7466 82.6272 15.9873 83.2337 15.9873C83.8402 15.9873 84.4219 15.7466 84.8511 15.3181C85.0712 15.0928 85.2433 14.8252 85.3571 14.5314C85.4709 14.2377 85.5239 13.9239 85.513 13.6091C85.5239 13.2943 85.4709 12.9805 85.3571 12.6868C85.2433 12.3931 85.0712 12.1254 84.8511 11.9001C84.4219 11.4716 83.8402 11.2309 83.2337 11.2309C82.6272 11.2309 82.0455 11.4716 81.6162 11.9001C81.3964 12.1256 81.2246 12.3933 81.111 12.687C80.9974 12.9807 80.9444 13.2944 80.9553 13.6091C80.9444 13.9238 80.9974 14.2375 81.111 14.5312C81.2246 14.8249 81.3964 15.0926 81.6162 15.3181Z" fill="white" stroke="white" stroke-width="0.19847" stroke-miterlimit="10"/>
<path d="M87.3686 16.5862V10.6321H88.2999L91.1936 15.2639H91.2266L91.1936 14.1164V10.6321H91.9592V16.5862H91.1607L88.1332 11.73H88.1002L88.1332 12.8775V16.5862H87.3686Z" fill="white" stroke="white" stroke-width="0.19847" stroke-miterlimit="10"/>
<path d="M79.9847 25.2709C79.1506 25.2741 78.3362 25.5243 77.6442 25.99C76.9522 26.4557 76.4137 27.1159 76.0967 27.8874C75.7797 28.6589 75.6984 29.5071 75.8631 30.3248C76.0278 31.1424 76.431 31.893 77.0219 32.4816C77.6128 33.0703 78.3649 33.4707 79.1832 33.6322C80.0015 33.7938 80.8493 33.7093 81.6196 33.3893C82.3899 33.0694 83.0481 32.5284 83.5112 31.8347C83.9742 31.1409 84.2213 30.3256 84.2213 29.4915C84.2295 28.9336 84.1254 28.3798 83.9152 27.8629C83.705 27.3461 83.393 26.8769 82.9977 26.4831C82.6024 26.0893 82.132 25.7791 81.6144 25.5708C81.0968 25.3626 80.5425 25.2606 79.9847 25.2709ZM79.9847 32.0495C79.471 32.0861 78.9582 31.9672 78.5131 31.7083C78.0679 31.4494 77.711 31.0625 77.4888 30.5979C77.2666 30.1334 77.1895 29.6126 77.2674 29.1036C77.3453 28.5946 77.5746 28.1208 77.9256 27.7439C78.2765 27.367 78.7328 27.1045 79.235 26.9906C79.7372 26.8767 80.2621 26.9166 80.7413 27.1052C81.2205 27.2938 81.6318 27.6222 81.9218 28.0479C82.2117 28.4735 82.3667 28.9765 82.3667 29.4915C82.3823 29.8168 82.3327 30.142 82.2207 30.4478C82.1087 30.7537 81.9367 31.034 81.7147 31.2724C81.4927 31.5108 81.2253 31.7023 80.9282 31.8357C80.6311 31.9692 80.3103 32.0419 79.9847 32.0495ZM70.7425 25.2709C69.9084 25.274 69.094 25.5242 68.402 25.9899C67.71 26.4556 67.1715 27.1159 66.8545 27.8874C66.5375 28.6589 66.4562 29.507 66.6208 30.3247C66.7855 31.1424 67.1887 31.8929 67.7796 32.4816C68.3705 33.0703 69.1226 33.4707 69.9409 33.6322C70.7592 33.7938 71.607 33.7093 72.3773 33.3894C73.1476 33.0694 73.8058 32.5284 74.2689 31.8347C74.7319 31.141 74.9791 30.3256 74.9791 29.4915C74.9873 28.9336 74.8832 28.3798 74.673 27.863C74.4627 27.3461 74.1507 26.8769 73.7555 26.4831C73.3602 26.0893 72.8898 25.7791 72.3722 25.5709C71.8546 25.3626 71.3003 25.2606 70.7425 25.2709ZM70.7425 32.0495C70.2288 32.0861 69.7161 31.9672 69.2709 31.7083C68.8257 31.4494 68.4688 31.0625 68.2467 30.5979C68.0245 30.1334 67.9473 29.6126 68.0252 29.1036C68.1031 28.5946 68.3325 28.1208 68.6834 27.7439C69.0344 27.367 69.4906 27.1045 69.9928 26.9906C70.4951 26.8767 71.0199 26.9166 71.4991 27.1052C71.9783 27.2938 72.3897 27.6222 72.6796 28.0479C72.9695 28.4735 73.1245 28.9765 73.1246 29.4915C73.1402 29.8168 73.0905 30.142 72.9785 30.4478C72.8666 30.7537 72.6945 31.034 72.4726 31.2724C72.2506 31.5108 71.9832 31.7023 71.6861 31.8358C71.3889 31.9692 71.0681 32.0419 70.7425 32.0495ZM59.7484 26.5659V28.3564H64.0331C63.9713 29.1963 63.6276 29.9906 63.0578 30.6106C62.6285 31.0483 62.1121 31.3911 61.5421 31.6169C60.9721 31.8427 60.361 31.9465 59.7484 31.9215C58.4961 31.9046 57.3007 31.3952 56.4211 30.5036C55.5415 29.612 55.0483 28.4098 55.0483 27.1574C55.0483 25.9049 55.5415 24.7028 56.4211 23.8111C57.3007 22.9195 58.4961 22.4101 59.7484 22.3932C60.9514 22.3775 62.1119 22.8371 62.978 23.6721L64.2409 22.4092C63.65 21.8242 62.9483 21.3631 62.1769 21.0528C61.4054 20.7426 60.5798 20.5895 59.7484 20.6026C58.8796 20.5899 58.017 20.7501 57.2106 21.0739C56.4043 21.3976 55.6703 21.8784 55.0515 22.4883C54.4326 23.0982 53.9411 23.8251 53.6057 24.6267C53.2703 25.4282 53.0975 26.2885 53.0975 27.1574C53.0975 28.0263 53.2703 28.8865 53.6057 29.6881C53.9411 30.4896 54.4326 31.2165 55.0515 31.8264C55.6703 32.4363 56.4043 32.9171 57.2106 33.2409C58.017 33.5646 58.8796 33.7248 59.7484 33.7121C60.5974 33.7473 61.4441 33.6016 62.2324 33.2847C63.0207 32.9677 63.7326 32.4867 64.3208 31.8736C65.3652 30.7337 65.9218 29.2302 65.8717 27.685C65.8757 27.3097 65.8436 26.935 65.7756 26.5659H59.7484ZM104.71 27.9567C104.457 27.1922 103.974 26.5244 103.327 26.0438C102.681 25.5633 101.902 25.2935 101.097 25.2709C100.555 25.2743 100.019 25.3876 99.5216 25.6039C99.0243 25.8203 98.5761 26.1353 98.204 26.5298C97.8319 26.9243 97.5437 27.3901 97.3567 27.8992C97.1698 28.4082 97.088 28.9499 97.1164 29.4915C97.1041 30.0464 97.2039 30.598 97.4096 31.1135C97.6154 31.629 97.923 32.0978 98.3139 32.4917C98.7049 32.8857 99.1713 33.1968 99.6852 33.4065C100.199 33.6162 100.75 33.7201 101.305 33.7121C102 33.716 102.686 33.5471 103.3 33.2206C103.913 32.8941 104.437 32.4203 104.822 31.8417L103.383 30.8825C103.168 31.2404 102.863 31.5362 102.498 31.7408C102.134 31.9454 101.723 32.0518 101.305 32.0495C100.875 32.0659 100.45 31.9528 100.085 31.7247C99.7202 31.4967 99.4322 31.1642 99.2585 30.7705L104.902 28.4364L104.71 27.9567ZM98.9549 29.3637C98.935 29.0565 98.9766 28.7484 99.0772 28.4575C99.1778 28.1666 99.3355 27.8986 99.5409 27.6694C99.7463 27.4401 99.9954 27.2541 100.274 27.1223C100.552 26.9905 100.853 26.9155 101.161 26.9016C101.481 26.8806 101.801 26.9542 102.079 27.1134C102.358 27.2726 102.583 27.5104 102.728 27.7969L98.9549 29.3637ZM94.3665 33.4563H96.221V21.0503H94.3665V33.4563ZM91.3289 26.2141H91.2649C90.983 25.9078 90.6389 25.6652 90.2557 25.5025C89.8724 25.3399 89.4589 25.2609 89.0427 25.2709C87.9544 25.3172 86.926 25.7821 86.1723 26.5686C85.4186 27.355 84.9979 28.4022 84.9979 29.4915C84.9979 30.5808 85.4186 31.628 86.1723 32.4145C86.926 33.2009 87.9544 33.6658 89.0427 33.7121C89.4605 33.7233 89.8758 33.6432 90.2596 33.4776C90.6434 33.3119 90.9864 33.0646 91.2649 32.7529H91.3289V33.3605C91.3289 34.9752 90.4656 35.8385 89.0746 35.8385C88.6111 35.8274 88.1613 35.6785 87.7826 35.4109C87.404 35.1432 87.1136 34.7689 86.9484 34.3356L85.3337 35.0072C85.638 35.7481 86.1566 36.3813 86.8231 36.8257C87.4896 37.27 88.2736 37.5052 89.0746 37.5011C91.249 37.5011 93.0875 36.2222 93.0875 33.1046V25.5266H91.3289V26.2141ZM89.2026 32.0495C88.5616 31.9951 87.9644 31.7021 87.5292 31.2284C87.0939 30.7547 86.8524 30.1348 86.8524 29.4915C86.8524 28.8482 87.0939 28.2284 87.5292 27.7547C87.9644 27.281 88.5616 26.9879 89.2026 26.9336C89.5215 26.9492 89.834 27.0288 90.1215 27.1677C90.409 27.3066 90.6655 27.502 90.8759 27.7422C91.0862 27.9824 91.2461 28.2625 91.3459 28.5657C91.4457 28.869 91.4834 29.1893 91.4568 29.5074C91.4817 29.8236 91.4426 30.1416 91.3418 30.4424C91.241 30.7431 91.0806 31.0204 90.8702 31.2577C90.6597 31.495 90.4036 31.6875 90.1171 31.8235C89.8306 31.9595 89.5195 32.0364 89.2026 32.0495ZM113.397 21.0505H108.96V33.4563H110.812V28.7561H113.397C113.921 28.7848 114.445 28.7065 114.937 28.5258C115.43 28.3452 115.88 28.066 116.261 27.7055C116.642 27.3449 116.945 26.9104 117.153 26.4286C117.36 25.9468 117.467 25.4278 117.467 24.9033C117.467 24.3788 117.36 23.8598 117.153 23.378C116.945 22.8963 116.642 22.4618 116.261 22.1012C115.88 21.7406 115.43 21.4615 114.937 21.2808C114.445 21.1002 113.921 21.0218 113.397 21.0505ZM113.445 27.0296H110.812V22.7771H113.445C113.728 22.7713 114.009 22.8219 114.272 22.9261C114.535 23.0304 114.775 23.186 114.977 23.3841C115.179 23.5821 115.34 23.8185 115.45 24.0794C115.559 24.3402 115.616 24.6204 115.616 24.9034C115.616 25.1864 115.559 25.4665 115.45 25.7274C115.34 25.9883 115.179 26.2247 114.977 26.4227C114.775 26.6207 114.535 26.7764 114.272 26.8806C114.009 26.9848 113.728 27.0355 113.445 27.0296ZM124.889 25.2481C124.213 25.2086 123.54 25.3673 122.953 25.7047C122.366 26.0421 121.891 26.5435 121.585 27.1473L123.229 27.8336C123.392 27.5339 123.638 27.2882 123.939 27.1267C124.239 26.9651 124.58 26.8946 124.92 26.9239C125.39 26.878 125.859 27.0203 126.224 27.3194C126.589 27.6186 126.82 28.0503 126.868 28.5199V28.6476C126.273 28.3317 125.61 28.1672 124.936 28.1688C123.165 28.1688 121.361 29.1424 121.361 30.9618C121.379 31.3453 121.473 31.7214 121.638 32.0678C121.803 32.4142 122.036 32.7239 122.324 32.9784C122.611 33.2329 122.947 33.4272 123.31 33.5496C123.674 33.672 124.059 33.7201 124.442 33.691C124.908 33.7184 125.373 33.6204 125.788 33.4071C126.204 33.1937 126.554 32.8729 126.804 32.4781H126.868V33.4357H128.655V28.6795C128.655 26.477 127.011 25.2481 124.889 25.2481ZM124.665 32.0471C124.059 32.0471 123.213 31.7439 123.213 30.9937C123.213 30.0362 124.266 29.669 125.176 29.669C125.767 29.6533 126.351 29.7966 126.868 30.084C126.8 30.6221 126.539 31.1174 126.134 31.4782C125.729 31.8391 125.207 32.0412 124.665 32.0471ZM135.167 25.5194L133.044 30.8979H132.98L130.778 25.5194H128.783L132.087 33.0366L130.203 37.2182H132.134L137.226 25.5194H135.167ZM118.488 33.4563H120.34V21.0505H118.488V33.4563Z" fill="white"/>
<path d="M25.2016 12.3268C24.902 12.6851 24.7507 13.1444 24.7787 13.6107V33.8205C24.7506 34.2868 24.9019 34.7461 25.2016 35.1044L25.2692 35.1702L36.5904 23.8492V23.582L25.2692 12.2605L25.2016 12.3268Z" fill="url(#paint0_linear_60_6406)"/>
<path d="M40.3633 27.6244L36.5898 23.8491V23.582L40.3642 19.8076L40.4493 19.8561L44.9204 22.3966C46.1975 23.1222 46.1975 24.3094 44.9204 25.0354L40.4493 27.5759L40.3633 27.6244Z" fill="url(#paint1_linear_60_6406)"/>
<path d="M40.4501 27.5754L36.5906 23.7156L25.2018 35.1043C25.462 35.3338 25.7943 35.465 26.1411 35.4753C26.488 35.4855 26.8274 35.3741 27.1008 35.1604L40.4501 27.5754Z" fill="url(#paint2_linear_60_6406)"/>
<path d="M40.4501 19.8556L27.1008 12.2706C26.8274 12.0569 26.488 11.9455 26.1411 11.9557C25.7943 11.966 25.462 12.0972 25.2018 12.3267L36.5906 23.7155L40.4501 19.8556Z" fill="url(#paint3_linear_60_6406)"/>
<path opacity="0.2" d="M40.365 27.4905L27.1008 35.0269C26.838 35.227 26.5172 35.3362 26.1869 35.3379C25.8567 35.3397 25.5348 35.234 25.2699 35.0367L25.2018 35.1048L25.2694 35.1707L25.2699 35.1702C25.5347 35.3676 25.8566 35.4734 26.187 35.4716C26.5173 35.4698 26.838 35.3606 27.1008 35.1604L40.4501 27.5755L40.365 27.4905Z" fill="black"/>
<path opacity="0.12" d="M25.2016 34.9713C24.902 34.613 24.7507 34.1537 24.7787 33.6875V33.821C24.7507 34.2872 24.902 34.7465 25.2016 35.1048L25.2697 35.0367L25.2016 34.9713Z" fill="black"/>
<path opacity="0.12" d="M44.9202 24.9015L40.3641 27.4906L40.4491 27.5755L44.9202 25.0351C45.1832 24.9209 45.4108 24.7384 45.5793 24.5064C45.7478 24.2744 45.851 24.0015 45.8782 23.7161C45.8217 23.9745 45.7056 24.2163 45.5393 24.422C45.3731 24.6278 45.1611 24.792 44.9202 24.9015Z" fill="black"/>
<path opacity="0.25" d="M27.1002 12.4047L44.9205 22.5297C45.1615 22.6393 45.3735 22.8035 45.5398 23.0094C45.7061 23.2153 45.8221 23.4571 45.8785 23.7157C45.8515 23.4302 45.7484 23.1571 45.5799 22.925C45.4114 22.6929 45.1837 22.5103 44.9205 22.3962L27.1002 12.2712C25.823 11.5456 24.7783 12.1483 24.7783 13.6111V13.7447C24.7783 12.2819 25.823 11.6792 27.1002 12.4047Z" fill="white"/>
</g>
<defs>
<linearGradient id="paint0_linear_60_6406" x1="35.5865" y1="13.3976" x2="20.2505" y2="28.7335" gradientUnits="userSpaceOnUse">
<stop stop-color="#00A0FF"/>
<stop offset="0.00657" stop-color="#00A1FF"/>
<stop offset="0.2601" stop-color="#00BEFF"/>
<stop offset="0.5122" stop-color="#00D2FF"/>
<stop offset="0.7604" stop-color="#00DFFF"/>
<stop offset="1" stop-color="#00E3FF"/>
</linearGradient>
<linearGradient id="paint1_linear_60_6406" x1="46.5832" y1="23.716" x2="24.4719" y2="23.716" gradientUnits="userSpaceOnUse">
<stop stop-color="#FFE000"/>
<stop offset="0.4087" stop-color="#FFBD00"/>
<stop offset="0.7754" stop-color="#FFA500"/>
<stop offset="1" stop-color="#FF9C00"/>
</linearGradient>
<linearGradient id="paint2_linear_60_6406" x1="38.3529" y1="25.8129" x2="17.5562" y2="46.6096" gradientUnits="userSpaceOnUse">
<stop stop-color="#FF3A44"/>
<stop offset="1" stop-color="#C31162"/>
</linearGradient>
<linearGradient id="paint3_linear_60_6406" x1="22.3342" y1="5.59943" x2="31.6208" y2="14.886" gradientUnits="userSpaceOnUse">
<stop stop-color="#32A071"/>
<stop offset="0.0685" stop-color="#2DA771"/>
<stop offset="0.4762" stop-color="#15CF74"/>
<stop offset="0.8009" stop-color="#06E775"/>
<stop offset="1" stop-color="#00F076"/>
</linearGradient>
<clipPath id="clip0_60_6406">
<rect x="0.000976562" width="161.999" height="47.9999" rx="24" fill="white"/>
</clipPath>
</defs>
</svg>
