<svg width="162" height="48" viewBox="0 0 162 48" fill="none" xmlns="http://www.w3.org/2000/svg">
<g clip-path="url(#clip0_60_6429)">
<g opacity="0.12">
<path d="M149.098 -8.81416e-05H12.9079C12.4114 -8.81416e-05 11.921 -8.81415e-05 11.4258 0.00231184C11.0114 0.00471183 10.6002 0.0116838 10.1818 0.0175517C9.27274 0.0270339 8.36584 0.0979228 7.46895 0.229602C6.57332 0.364149 5.70575 0.617807 4.89557 0.981998C4.08639 1.34927 3.34701 1.8265 2.70427 2.39638C2.05816 2.96466 1.51957 3.62151 1.10922 4.34168C0.697739 5.06041 0.412417 5.8306 0.263107 6.62565C0.112379 7.41969 0.0312702 8.22289 0.0205098 9.02803C0.0079467 9.39595 0.00661999 9.76509 0 10.1331V37.87C0.00661999 38.2426 0.0079467 38.6036 0.0205098 38.9763C0.0312735 39.7814 0.112382 40.5845 0.263107 41.3785C0.412004 42.174 0.697344 42.9447 1.10922 43.6637C1.51938 44.3815 2.05805 45.0357 2.70427 45.6008C3.34458 46.1732 4.08443 46.6508 4.89557 47.0153C5.70574 47.3804 6.57322 47.6356 7.46895 47.7722C8.36599 47.9028 9.2728 47.9738 10.1818 47.9844C10.6002 47.9925 11.0114 47.9972 11.4258 47.9972C11.921 47.9996 12.4115 47.9996 12.9079 47.9996H149.098C149.585 47.9996 150.079 47.9996 150.566 47.9972C150.978 47.9972 151.401 47.9925 151.814 47.9844C152.721 47.9743 153.626 47.9034 154.522 47.7722C155.42 47.6346 156.291 47.3795 157.105 47.0153C157.915 46.6506 158.654 46.173 159.294 45.6008C159.939 45.0335 160.479 44.3798 160.894 43.6637C161.303 42.9442 161.585 42.1736 161.732 41.3785C161.883 40.5844 161.967 39.7814 161.983 38.9763C161.988 38.6036 161.988 38.2426 161.988 37.87C161.999 37.434 161.999 37.0005 161.999 36.5574V11.4432C161.999 11.0037 161.999 10.5678 161.988 10.1331C161.988 9.76509 161.988 9.39595 161.983 9.02798C161.967 8.22277 161.883 7.41975 161.732 6.6256C161.585 5.83101 161.302 5.06088 160.894 4.34163C160.058 2.89813 158.733 1.72313 157.105 0.98189C156.291 0.618589 155.42 0.364998 154.522 0.229494C153.626 0.0972346 152.721 0.026321 151.814 0.0173838C151.401 0.0115278 150.978 0.00449583 150.566 0.00215584C150.079 -0.000244141 149.585 -0.000244141 149.098 -0.000244141V-8.81416e-05Z" fill="white"/>
<path d="M11.3161 46.9533C10.903 46.9533 10.4998 46.9486 10.0898 46.9404C9.24059 46.9306 8.39335 46.8652 7.55504 46.7447C6.77336 46.6255 6.01612 46.4039 5.30831 46.087C4.60698 45.7729 3.96731 45.3609 3.41381 44.8669C2.85229 44.3787 2.3848 43.8125 2.02987 43.1907C1.67103 42.5649 1.42269 41.8941 1.2935 41.2017C1.15399 40.4577 1.07851 39.7054 1.06771 38.9512C1.05911 38.6981 1.04785 37.8553 1.04785 37.8553V10.129C1.04785 10.129 1.05984 9.29914 1.06777 9.05533C1.07811 8.3024 1.15316 7.55125 1.29225 6.80839C1.42168 6.11407 1.67021 5.44134 2.02925 4.81347C2.38288 4.19212 2.84777 3.6255 3.4059 3.13559C3.9634 2.64102 4.60512 2.22691 5.30764 1.90837C6.01383 1.59257 6.76964 1.37249 7.54974 1.25551C8.3908 1.13377 9.24099 1.06795 10.0932 1.0586L11.3168 1.04395H150.683L151.922 1.05919C152.766 1.06807 153.608 1.1333 154.442 1.25434C155.23 1.37278 155.993 1.5944 156.708 1.91189C158.115 2.55384 159.26 3.56945 159.983 4.8164C160.336 5.43993 160.581 6.10718 160.709 6.7955C160.849 7.54445 160.928 8.3015 160.944 9.06061C160.948 9.40052 160.948 9.76563 160.948 10.129C160.959 10.5791 160.959 11.0075 160.959 11.4394V36.5589C160.959 36.995 160.959 37.4204 160.948 37.8494C160.948 38.2397 160.948 38.5973 160.943 38.9653C160.927 39.7108 160.85 40.4544 160.711 41.1899C160.585 41.8873 160.338 42.5634 159.979 43.1943C159.621 43.8094 159.157 44.3707 158.602 44.8575C158.048 45.3542 157.407 45.7686 156.704 46.0848C155.991 46.404 155.229 46.6265 154.442 46.7447C153.604 46.8658 152.756 46.9313 151.907 46.9404C151.51 46.9486 151.094 46.9533 150.69 46.9533L149.22 46.9557L11.3161 46.9533Z" fill="white"/>
</g>
<path d="M43.2904 23.2841C43.302 22.3838 43.5412 21.5011 43.9856 20.7181C44.43 19.9351 45.0652 19.2772 45.8322 18.8056C45.345 18.1098 44.7022 17.5371 43.9549 17.1331C43.2076 16.7291 42.3764 16.5049 41.5273 16.4783C39.7161 16.2882 37.9601 17.5622 37.0371 17.5622C36.0963 17.5622 34.6752 16.4972 33.1449 16.5287C32.1551 16.5607 31.1905 16.8485 30.345 17.3641C29.4995 17.8798 28.8019 18.6057 28.3204 19.471C26.2343 23.0827 27.7903 28.3906 29.7886 31.31C30.7884 32.7396 31.9568 34.3364 33.4857 34.2798C34.9818 34.2177 35.5406 33.3258 37.3465 33.3258C39.1357 33.3258 39.6599 34.2798 41.2198 34.2438C42.8252 34.2177 43.8367 32.8079 44.8014 31.3648C45.5197 30.3462 46.0725 29.2204 46.4392 28.0291C45.5065 27.6347 44.7105 26.9744 44.1506 26.1306C43.5907 25.2868 43.2915 24.2968 43.2904 23.2841Z" fill="white"/>
<path d="M40.344 14.5585C41.2193 13.5077 41.6506 12.1571 41.5462 10.7935C40.2089 10.9339 38.9736 11.5731 38.0864 12.5835C37.6526 13.0772 37.3204 13.6515 37.1088 14.2736C36.8971 14.8957 36.8101 15.5534 36.8528 16.2092C37.5217 16.2161 38.1834 16.0711 38.7882 15.7852C39.3929 15.4992 39.9249 15.0798 40.344 14.5585Z" fill="white"/>
<path d="M62.2026 30.6609H57.097L55.8709 34.2812H53.7084L58.5443 20.887H60.7911L65.6269 34.2812H63.4276L62.2026 30.6609ZM57.6258 28.9903H61.6728L59.6777 23.1148H59.6219L57.6258 28.9903Z" fill="white"/>
<path d="M76.0707 29.3989C76.0707 32.4335 74.4464 34.3833 71.9953 34.3833C71.3744 34.4157 70.7569 34.2727 70.2135 33.9706C69.6701 33.6684 69.2227 33.2193 68.9227 32.6747H68.8763V37.5117H66.8718V24.5156H68.8121V26.1398H68.849C69.1628 25.5979 69.6177 25.1511 70.1652 24.8471C70.7128 24.5431 71.3325 24.3932 71.9584 24.4134C74.4369 24.4134 76.0707 26.3726 76.0707 29.3989ZM74.0103 29.3989C74.0103 27.4218 72.9886 26.1219 71.4296 26.1219C69.8981 26.1219 68.8679 27.4491 68.8679 29.3989C68.8679 31.3665 69.8981 32.6842 71.4296 32.6842C72.9886 32.6842 74.0103 31.3939 74.0103 29.3989Z" fill="white"/>
<path d="M86.819 29.3989C86.819 32.4335 85.1948 34.3833 82.7436 34.3833C82.1227 34.4157 81.5052 34.2727 80.9618 33.9705C80.4184 33.6684 79.9711 33.2193 79.6711 32.6747H79.6247V37.5117H77.6202V24.5156H79.5604V26.1398H79.5973C79.9111 25.5979 80.366 25.1511 80.9135 24.8471C81.4611 24.5431 82.0808 24.3932 82.7067 24.4134C85.1853 24.4134 86.819 26.3726 86.819 29.3989ZM84.7587 29.3989C84.7587 27.4218 83.7369 26.1219 82.178 26.1219C80.6464 26.1219 79.6163 27.4491 79.6163 29.3989C79.6163 31.3665 80.6464 32.6842 82.178 32.6842C83.7369 32.6842 84.7587 31.3939 84.7587 29.3989H84.7587Z" fill="white"/>
<path d="M93.9227 30.5492C94.0712 31.8775 95.3616 32.7496 97.1249 32.7496C98.8144 32.7496 100.03 31.8774 100.03 30.6798C100.03 29.6401 99.2968 29.0176 97.561 28.591L95.8251 28.1728C93.3655 27.5787 92.2237 26.4285 92.2237 24.562C92.2237 22.251 94.2377 20.6636 97.0975 20.6636C99.9278 20.6636 101.868 22.251 101.933 24.562H99.9099C99.7887 23.2253 98.6838 22.4184 97.069 22.4184C95.4543 22.4184 94.3493 23.2348 94.3493 24.4229C94.3493 25.3699 95.055 25.9271 96.7815 26.3537L98.2572 26.716C101.005 27.3659 102.147 28.4699 102.147 30.429C102.147 32.9349 100.151 34.5044 96.9763 34.5044C94.0059 34.5044 92.0004 32.9718 91.8708 30.5491L93.9227 30.5492Z" fill="white"/>
<path d="M106.473 22.2046V24.5156H108.33V26.103H106.473V31.4866C106.473 32.323 106.845 32.7127 107.662 32.7127C107.882 32.7088 108.102 32.6934 108.321 32.6663V34.2442C107.954 34.3128 107.581 34.3438 107.208 34.3369C105.23 34.3369 104.459 33.5943 104.459 31.7004V26.103H103.04V24.5156H104.459V22.2046H106.473Z" fill="white"/>
<path d="M109.406 29.3989C109.406 26.3263 111.215 24.3955 114.037 24.3955C116.869 24.3955 118.67 26.3262 118.67 29.3989C118.67 32.4799 116.878 34.4022 114.037 34.4022C111.197 34.4022 109.406 32.4799 109.406 29.3989ZM116.627 29.3989C116.627 27.2911 115.661 26.0471 114.037 26.0471C112.413 26.0471 111.448 27.3006 111.448 29.3989C111.448 31.515 112.413 32.7495 114.037 32.7495C115.661 32.7495 116.627 31.515 116.627 29.3989H116.627Z" fill="white"/>
<path d="M120.323 24.5158H122.235V26.1779H122.281C122.411 25.6588 122.715 25.2 123.143 24.8787C123.57 24.5574 124.096 24.3931 124.63 24.4136C124.861 24.4128 125.092 24.4378 125.317 24.4884V26.3633C125.025 26.2742 124.721 26.2333 124.416 26.2422C124.125 26.2304 123.835 26.2817 123.565 26.3927C123.296 26.5036 123.054 26.6716 122.855 26.8851C122.657 27.0985 122.507 27.3524 122.416 27.6292C122.325 27.9061 122.295 28.1994 122.328 28.4889V34.2812H120.323L120.323 24.5158Z" fill="white"/>
<path d="M134.558 31.4128C134.288 33.1856 132.562 34.4022 130.353 34.4022C127.512 34.4022 125.749 32.4988 125.749 29.4452C125.749 26.3821 127.521 24.3955 130.269 24.3955C132.97 24.3955 134.669 26.2515 134.669 29.2124V29.8992H127.772V30.0203C127.74 30.3797 127.785 30.7418 127.904 31.0825C128.023 31.4231 128.213 31.7346 128.461 31.9962C128.71 32.2578 129.011 32.4636 129.345 32.5998C129.679 32.7361 130.039 32.7997 130.399 32.7864C130.873 32.8308 131.348 32.7211 131.755 32.4736C132.161 32.2261 132.476 31.8541 132.654 31.4128L134.558 31.4128ZM127.782 28.4983H132.664C132.682 28.1751 132.633 27.8517 132.52 27.5484C132.407 27.2451 132.233 26.9684 132.008 26.7357C131.783 26.5029 131.512 26.3192 131.213 26.196C130.914 26.0728 130.592 26.0128 130.269 26.0198C129.942 26.0178 129.619 26.0805 129.316 26.2043C129.014 26.328 128.74 26.5104 128.509 26.7408C128.277 26.9713 128.094 27.2452 127.969 27.5468C127.845 27.8485 127.781 28.1718 127.782 28.4983V28.4983Z" fill="white"/>
<path d="M57.3762 10.8047C57.7965 10.7745 58.2182 10.838 58.6109 10.9905C59.0036 11.1431 59.3576 11.3809 59.6473 11.6868C59.937 11.9928 60.1552 12.3592 60.2862 12.7596C60.4171 13.1601 60.4576 13.5846 60.4046 14.0026C60.4046 16.0587 59.2933 17.2406 57.3762 17.2406H55.0515V10.8047H57.3762ZM56.0511 16.3304H57.2646C57.5649 16.3484 57.8654 16.2991 58.1442 16.1863C58.4231 16.0735 58.6733 15.8999 58.8766 15.6781C59.0799 15.4564 59.2312 15.1921 59.3195 14.9046C59.4078 14.617 59.4309 14.3133 59.387 14.0157C59.4277 13.7193 59.4023 13.4175 59.3127 13.132C59.223 12.8466 59.0713 12.5845 58.8685 12.3645C58.6656 12.1445 58.4166 11.9722 58.1393 11.8597C57.862 11.7473 57.5633 11.6976 57.2646 11.7142H56.0511V16.3304Z" fill="white"/>
<path d="M61.534 14.8101C61.5035 14.4909 61.54 14.1689 61.6412 13.8646C61.7424 13.5604 61.9061 13.2807 62.1218 13.0434C62.3375 12.8061 62.6003 12.6165 62.8935 12.4868C63.1868 12.3571 63.5039 12.29 63.8245 12.29C64.1452 12.29 64.4623 12.3571 64.7555 12.4868C65.0487 12.6165 65.3116 12.8061 65.5272 13.0434C65.7429 13.2807 65.9066 13.5604 66.0078 13.8646C66.109 14.1689 66.1455 14.4909 66.115 14.8101C66.1461 15.1296 66.11 15.4521 66.0091 15.7568C65.9081 16.0616 65.7445 16.3418 65.5288 16.5796C65.3131 16.8173 65.05 17.0073 64.7565 17.1373C64.463 17.2673 64.1455 17.3345 63.8245 17.3345C63.5035 17.3345 63.186 17.2673 62.8925 17.1373C62.599 17.0073 62.3359 16.8173 62.1202 16.5796C61.9045 16.3418 61.7409 16.0616 61.6399 15.7568C61.539 15.4521 61.5029 15.1296 61.534 14.8101ZM65.1291 14.8101C65.1291 13.7573 64.6561 13.1416 63.8261 13.1416C62.9929 13.1416 62.5242 13.7573 62.5242 14.8101C62.5242 15.8714 62.9929 16.4823 63.8261 16.4823C64.6561 16.4823 65.1291 15.8671 65.1291 14.8101H65.1291Z" fill="white"/>
<path d="M72.2042 17.2407H71.2099L70.2061 13.6636H70.1302L69.1306 17.2407H68.1457L66.8069 12.3838H67.7792L68.6492 16.0899H68.7209L69.7194 12.3838H70.639L71.6376 16.0899H71.7134L72.5792 12.3838H73.5378L72.2042 17.2407Z" fill="white"/>
<path d="M74.6641 12.3839H75.5868V13.1555H75.6584C75.7799 12.8784 75.9849 12.6461 76.2447 12.491C76.5045 12.3359 76.8062 12.2657 77.1078 12.2902C77.3441 12.2724 77.5814 12.308 77.8021 12.3944C78.0228 12.4808 78.2212 12.6158 78.3827 12.7893C78.5441 12.9627 78.6645 13.1703 78.7348 13.3967C78.8051 13.623 78.8236 13.8622 78.7889 14.0967V17.2408H77.8304V14.3374C77.8304 13.5568 77.4912 13.1687 76.7823 13.1687C76.6219 13.1612 76.4617 13.1885 76.3128 13.2487C76.1639 13.3089 76.0298 13.4007 75.9196 13.5176C75.8094 13.6345 75.7259 13.7738 75.6746 13.926C75.6233 14.0783 75.6056 14.2398 75.6226 14.3995V17.2409H74.6641L74.6641 12.3839Z" fill="white"/>
<path d="M80.3164 10.4878H81.2749V17.2407H80.3164V10.4878Z" fill="white"/>
<path d="M82.6074 14.8102C82.5769 14.491 82.6134 14.1689 82.7146 13.8647C82.8159 13.5604 82.9796 13.2807 83.1953 13.0434C83.411 12.8061 83.6738 12.6165 83.9671 12.4868C84.2603 12.3571 84.5775 12.29 84.8981 12.29C85.2188 12.29 85.5359 12.3571 85.8291 12.4868C86.1224 12.6165 86.3853 12.8061 86.601 13.0434C86.8166 13.2807 86.9803 13.5604 87.0816 13.8647C87.1828 14.1689 87.2194 14.491 87.1889 14.8102C87.2199 15.1297 87.1838 15.4522 87.0828 15.7569C86.9819 16.0617 86.8182 16.3419 86.6025 16.5796C86.3868 16.8174 86.1237 17.0074 85.8302 17.1374C85.5366 17.2674 85.2191 17.3345 84.8981 17.3345C84.5771 17.3345 84.2596 17.2674 83.9661 17.1374C83.6725 17.0074 83.4095 16.8174 83.1937 16.5796C82.978 16.3419 82.8144 16.0617 82.7134 15.7569C82.6124 15.4522 82.5763 15.1297 82.6074 14.8102ZM86.2024 14.8102C86.2024 13.7574 85.7294 13.1417 84.8994 13.1417C84.0662 13.1417 83.5975 13.7574 83.5975 14.8102C83.5975 15.8714 84.0663 16.4824 84.8994 16.4824C85.7295 16.4824 86.2024 15.8672 86.2024 14.8102H86.2024Z" fill="white"/>
<path d="M88.1981 15.8672C88.1981 14.9929 88.849 14.4889 90.0045 14.4172L91.3202 14.3414V13.9222C91.3202 13.4092 90.981 13.1195 90.3258 13.1195C89.7907 13.1195 89.4199 13.316 89.3135 13.6594H88.3856C88.4835 12.8251 89.2683 12.29 90.37 12.29C91.5877 12.29 92.2745 12.8962 92.2745 13.9222V17.2407H91.3518V16.5582H91.2759C91.122 16.803 90.9058 17.0026 90.6495 17.1366C90.3932 17.2705 90.1059 17.3341 89.817 17.3207C89.6131 17.342 89.4071 17.3202 89.2121 17.2569C89.0171 17.1936 88.8376 17.0901 88.685 16.9532C88.5325 16.8162 88.4104 16.6488 88.3265 16.4618C88.2426 16.2747 88.1989 16.0722 88.1981 15.8672ZM91.3202 15.4521V15.0461L90.1341 15.1219C89.4652 15.1667 89.1619 15.3942 89.1619 15.8224C89.1619 16.2595 89.5411 16.5139 90.0625 16.5139C90.2153 16.5294 90.3696 16.5139 90.5163 16.4685C90.663 16.4231 90.7991 16.3487 90.9164 16.2496C91.0337 16.1506 91.13 16.0289 91.1993 15.8919C91.2687 15.7549 91.3098 15.6054 91.3202 15.4521Z" fill="white"/>
<path d="M93.5336 14.8102C93.5336 13.2755 94.3225 12.3032 95.5497 12.3032C95.8532 12.2892 96.1545 12.362 96.4182 12.5128C96.6819 12.6637 96.8973 12.8866 97.0391 13.1553H97.1107V10.4878H98.0692V17.2407H97.1507V16.4734H97.0749C96.9222 16.7403 96.6993 16.9604 96.4305 17.1098C96.1616 17.2591 95.857 17.3321 95.5497 17.3208C94.3141 17.3208 93.5336 16.3486 93.5336 14.8102ZM94.5237 14.8102C94.5237 15.8403 95.0093 16.4602 95.8215 16.4602C96.6293 16.4602 97.1286 15.8314 97.1286 14.8144C97.1286 13.8021 96.6241 13.1643 95.8215 13.1643C95.0146 13.1643 94.5237 13.7884 94.5237 14.8102H94.5237Z" fill="white"/>
<path d="M102.035 14.8101C102.005 14.4909 102.041 14.1689 102.142 13.8646C102.244 13.5604 102.407 13.2807 102.623 13.0434C102.839 12.8061 103.101 12.6165 103.395 12.4868C103.688 12.3571 104.005 12.29 104.326 12.29C104.646 12.29 104.963 12.3571 105.257 12.4868C105.55 12.6165 105.813 12.8061 106.028 13.0434C106.244 13.2807 106.408 13.5604 106.509 13.8646C106.61 14.1689 106.647 14.4909 106.616 14.8101C106.647 15.1296 106.611 15.4521 106.51 15.7568C106.409 16.0616 106.246 16.3418 106.03 16.5796C105.814 16.8173 105.551 17.0073 105.258 17.1373C104.964 17.2673 104.647 17.3345 104.326 17.3345C104.005 17.3345 103.687 17.2673 103.394 17.1373C103.1 17.0073 102.837 16.8173 102.621 16.5796C102.406 16.3418 102.242 16.0616 102.141 15.7568C102.04 15.4521 102.004 15.1296 102.035 14.8101ZM105.63 14.8101C105.63 13.7573 105.157 13.1416 104.327 13.1416C103.494 13.1416 103.025 13.7573 103.025 14.8101C103.025 15.8714 103.494 16.4823 104.327 16.4823C105.157 16.4823 105.63 15.8671 105.63 14.8101Z" fill="white"/>
<path d="M107.903 12.3839H108.825V13.1555H108.897C109.018 12.8784 109.223 12.6461 109.483 12.491C109.743 12.3359 110.045 12.2657 110.346 12.2902C110.583 12.2724 110.82 12.308 111.041 12.3944C111.261 12.4808 111.46 12.6158 111.621 12.7893C111.783 12.9627 111.903 13.1703 111.973 13.3967C112.044 13.623 112.062 13.8622 112.027 14.0967V17.2408H111.069V14.3374C111.069 13.5568 110.73 13.1687 110.021 13.1687C109.86 13.1612 109.7 13.1885 109.551 13.2487C109.402 13.3089 109.268 13.4007 109.158 13.5176C109.048 13.6345 108.964 13.7738 108.913 13.926C108.862 14.0783 108.844 14.2398 108.861 14.3995V17.2409H107.903V12.3839Z" fill="white"/>
<path d="M117.443 11.1746V12.4059H118.496V13.2133H117.443V15.7108C117.443 16.2195 117.653 16.4423 118.13 16.4423C118.252 16.4419 118.374 16.4345 118.496 16.4202V17.2186C118.324 17.2494 118.149 17.2658 117.974 17.2676C116.908 17.2676 116.484 16.8926 116.484 15.9562V13.2133H115.713V12.4059H116.484V11.1746H117.443Z" fill="white"/>
<path d="M119.806 10.4878H120.756V13.1643H120.832C120.959 12.8846 121.17 12.651 121.435 12.4953C121.7 12.3396 122.006 12.2694 122.312 12.2943C122.548 12.2815 122.783 12.3207 123.001 12.4092C123.219 12.4977 123.415 12.6333 123.575 12.8062C123.734 12.9792 123.854 13.1852 123.925 13.4097C123.996 13.6342 124.017 13.8716 123.985 14.105V17.2407H123.026V14.3414C123.026 13.5656 122.664 13.1727 121.987 13.1727C121.822 13.1592 121.657 13.1819 121.502 13.2391C121.346 13.2963 121.206 13.3867 121.089 13.504C120.973 13.6213 120.883 13.7626 120.827 13.9181C120.771 14.0736 120.75 14.2394 120.764 14.4041V17.2407H119.806L119.806 10.4878Z" fill="white"/>
<path d="M129.574 15.9294C129.443 16.3733 129.161 16.7573 128.776 17.0141C128.392 17.271 127.929 17.3844 127.469 17.3345C127.149 17.343 126.831 17.2817 126.537 17.1549C126.243 17.0282 125.98 16.839 125.767 16.6004C125.553 16.3619 125.394 16.0798 125.301 15.7737C125.207 15.4675 125.182 15.1447 125.225 14.8276C125.183 14.5095 125.209 14.186 125.302 13.879C125.396 13.5719 125.554 13.2885 125.766 13.0479C125.978 12.8073 126.24 12.6151 126.533 12.4844C126.826 12.3536 127.144 12.2874 127.465 12.2901C128.816 12.2901 129.632 13.2134 129.632 14.7386V15.0731H126.202V15.1268C126.187 15.305 126.209 15.4844 126.268 15.6535C126.326 15.8226 126.419 15.9776 126.541 16.1086C126.663 16.2396 126.81 16.3437 126.975 16.4142C127.139 16.4848 127.317 16.5202 127.495 16.5182C127.725 16.5457 127.957 16.5044 128.163 16.3996C128.368 16.2947 128.538 16.1311 128.651 15.9294L129.574 15.9294ZM126.202 14.3641H128.655C128.667 14.2011 128.645 14.0374 128.59 13.8835C128.535 13.7295 128.449 13.5888 128.336 13.4703C128.223 13.3518 128.087 13.2582 127.936 13.1954C127.785 13.1327 127.623 13.1022 127.46 13.1059C127.294 13.1038 127.129 13.135 126.976 13.1975C126.822 13.26 126.683 13.3526 126.565 13.4698C126.448 13.5871 126.356 13.7266 126.293 13.8802C126.231 14.0338 126.2 14.1984 126.202 14.3641H126.202Z" fill="white"/>
</g>
<defs>
<clipPath id="clip0_60_6429">
<rect width="161.999" height="47.9997" rx="23.9999" fill="white"/>
</clipPath>
</defs>
</svg>
