<svg width="158" height="34" viewBox="0 0 158 34" fill="none" xmlns="http://www.w3.org/2000/svg">
<path d="M29.0004 14.4998C29.0003 18.3454 27.4726 22.0335 24.7533 24.7528C22.0341 27.472 18.346 28.9997 14.5004 28.9998C14.3021 28.9998 14.1075 28.9961 13.9092 28.9886C12.8499 28.9453 11.7986 28.7872 10.7734 28.5171C10.9718 28.4161 11.1663 28.315 11.3609 28.2065C11.3647 28.2065 11.3684 28.2028 11.3759 28.199L11.3796 28.1953C11.5854 28.083 11.7875 27.9708 11.9858 27.8548C12.0345 27.8248 12.0831 27.7986 12.1318 27.7725C12.3189 27.6602 12.5059 27.5479 12.6893 27.4282C12.7435 27.3988 12.796 27.3663 12.8465 27.3309C12.9887 27.2448 13.1309 27.1513 13.2693 27.0577C13.3666 26.9941 13.4676 26.9268 13.5612 26.8632C13.7034 26.7659 13.8418 26.6686 13.9803 26.5676C14.0738 26.5039 14.1599 26.4403 14.2497 26.3692C14.3694 26.2869 14.4854 26.1971 14.6014 26.1073C14.7062 26.0325 14.8072 25.9539 14.9083 25.8716C15.0505 25.763 15.1889 25.6508 15.3274 25.531C15.3872 25.4861 15.4471 25.4375 15.507 25.3851C15.6567 25.2616 15.8026 25.1344 15.9485 25.0034C16.0271 24.9361 16.1057 24.8687 16.1843 24.7939C16.2703 24.719 16.3527 24.6442 16.435 24.5656C16.5921 24.4234 16.7456 24.2738 16.899 24.1241C16.9195 24.1073 16.9383 24.0885 16.9551 24.0679C17.1048 23.9258 17.2507 23.7761 17.3929 23.6264C17.4939 23.5291 17.5875 23.4281 17.6773 23.327C17.7858 23.2185 17.8868 23.1063 17.9879 22.994C18.0477 22.9304 18.1039 22.8668 18.1563 22.8032C18.291 22.6535 18.4219 22.5001 18.5529 22.3467C18.6203 22.2681 18.6876 22.1858 18.7512 22.1034C18.8485 21.9912 18.9421 21.8789 19.0281 21.7629C19.1179 21.6544 19.204 21.5421 19.2863 21.4299C19.3649 21.3326 19.4397 21.2316 19.5108 21.1343C19.6081 21.007 19.7017 20.8798 19.7915 20.7489C19.8813 20.6179 19.9786 20.4869 20.0684 20.3522C20.113 20.2935 20.1542 20.2322 20.1919 20.1689C20.3191 19.9818 20.4426 19.7909 20.5623 19.6001C20.7157 19.3643 20.8617 19.1249 21.0001 18.8816C21.0637 18.7769 21.1236 18.6721 21.1835 18.5673C21.6687 17.7115 22.1012 16.8267 22.4782 15.918C22.5343 15.7908 22.5867 15.6636 22.6353 15.5326C22.6952 15.3942 22.7476 15.252 22.8 15.1098C22.8449 14.9938 22.8898 14.874 22.931 14.7543C22.9796 14.6233 23.0245 14.4886 23.0694 14.3576C23.2341 13.8787 23.3837 13.396 23.5147 12.9058C23.5484 12.7823 23.5821 12.6625 23.612 12.5391C23.6344 12.4605 23.6532 12.3856 23.6719 12.3071L23.7617 11.9254C23.8814 11.4053 23.9824 10.8814 24.0685 10.35L24.1246 9.99081C24.1321 9.93468 24.1396 9.8823 24.1471 9.82617C24.1695 9.68397 24.1882 9.54178 24.2032 9.39959C24.2294 9.1863 24.2556 8.97301 24.2743 8.75972C24.2818 8.70359 24.2855 8.64746 24.2893 8.59133C24.3043 8.4454 24.3155 8.29572 24.3267 8.14978C24.3379 8.00385 24.3454 7.85043 24.3529 7.70075C24.3604 7.59598 24.3641 7.49121 24.3679 7.38269C24.3828 7.03843 24.3903 6.69417 24.3903 6.34992C24.3903 6.17405 24.3903 6.00192 24.3828 5.82979C24.3828 5.73998 24.3828 5.65392 24.3791 5.56411C24.3679 5.25353 24.3529 4.94669 24.3304 4.63986V4.62863C24.3267 4.55379 24.323 4.47895 24.3155 4.40411C24.3005 4.19831 24.2818 3.99624 24.2631 3.79044C24.2632 3.784 24.2619 3.7776 24.2593 3.77173C24.7635 4.2309 25.2349 4.7248 25.6701 5.24979L25.6813 5.26102C25.6833 5.26304 25.6846 5.26566 25.685 5.2685C27.8331 7.86469 29.0059 11.1302 29.0004 14.4998Z" fill="url(#paint0_linear_68_231)"/>
<path d="M24.3902 6.35005C24.3922 10.826 23.1841 15.2192 20.8937 19.0648C18.6034 22.9104 15.316 26.0652 11.3795 28.1954C11.3747 28.2011 11.3681 28.2051 11.3608 28.2067L11.3571 28.2104C11.1625 28.3152 10.9679 28.4162 10.7733 28.5172C9.55215 28.1954 8.37932 27.7122 7.28585 27.0803C6.49481 26.6247 5.74815 26.096 5.05566 25.5012C5.18663 25.3628 5.31386 25.2243 5.44108 25.0821L5.44479 25.0784C5.44479 25.0747 5.44857 25.0709 5.45231 25.0672H5.45601C9.55069 20.5163 11.8119 14.6085 11.8024 8.48669C11.803 5.84961 11.3862 3.22901 10.5675 0.722203H10.5638C10.5638 0.71472 10.56 0.707236 10.56 0.699752H10.5563C10.5541 0.693731 10.5529 0.687422 10.5526 0.681035C10.4777 0.452777 10.3991 0.22453 10.3168 1.38808e-05H14.5003C18.1101 -0.00498518 21.5911 1.34046 24.2592 3.77186C24.2891 4.05625 24.3116 4.34064 24.3303 4.62877C24.3715 5.19754 24.3902 5.77005 24.3902 6.35005Z" fill="url(#paint1_linear_68_231)"/>
<path d="M11.802 8.48669C11.802 8.7374 11.7983 8.98811 11.7908 9.23508C11.7871 9.39598 11.7796 9.55314 11.7721 9.71405C11.7422 10.3577 11.686 10.9975 11.6037 11.6337C11.585 11.7983 11.5626 11.9592 11.5364 12.1201C11.5102 12.3184 11.4765 12.513 11.4428 12.7113C11.4129 12.8984 11.3792 13.0818 11.3418 13.2689C11.3343 13.3138 11.3231 13.3587 11.3156 13.4036C11.2857 13.557 11.252 13.7142 11.2183 13.8676C11.0425 14.6651 10.8265 15.4531 10.5709 16.2287C10.5223 16.3822 10.4699 16.5318 10.4175 16.6778C10.413 16.6958 10.4067 16.7133 10.3988 16.7302C10.3464 16.8836 10.294 17.0295 10.2379 17.1792C10.2229 17.2241 10.2042 17.2727 10.1855 17.3214C10.1257 17.4823 10.062 17.6395 9.99843 17.7966C9.92734 17.9762 9.8525 18.1558 9.77392 18.3317C9.69534 18.5151 9.61301 18.6984 9.53069 18.8818C9.45211 19.0502 9.36979 19.2185 9.29121 19.3832C9.20514 19.5591 9.11908 19.7312 9.02927 19.8996C8.93947 20.068 8.84966 20.2401 8.75611 20.4085C8.66256 20.5769 8.56902 20.7453 8.47547 20.9099C8.38192 21.0745 8.28089 21.2429 8.17986 21.4076C8.07882 21.5722 7.97779 21.7331 7.87302 21.894C7.66721 22.2158 7.45392 22.5339 7.23315 22.8445C7.01237 23.1551 6.78037 23.4619 6.54837 23.765C6.19663 24.2103 5.83243 24.6443 5.45573 25.0672H5.45199C5.44825 25.0709 5.44825 25.0709 5.44825 25.0747C5.44825 25.0756 5.44787 25.0766 5.44716 25.0773C5.44645 25.078 5.44552 25.0784 5.44451 25.0784C5.31728 25.2206 5.18631 25.3628 5.05535 25.5012C4.46577 24.9946 3.91769 24.4415 3.41639 23.8473C3.41259 23.8402 3.40751 23.8339 3.40142 23.8286C1.20083 21.2187 -0.0042203 17.9138 1.11057e-05 14.5V0H10.3165C10.3988 0.224516 10.4774 0.449031 10.5485 0.677289L10.5522 0.681024C10.5526 0.687407 10.5538 0.69372 10.556 0.699741H10.5597V0.710963C10.5595 0.712995 10.5597 0.715053 10.5603 0.716995C10.561 0.718933 10.5621 0.72071 10.5635 0.722189H10.5672C10.5705 0.73646 10.5756 0.750275 10.5822 0.763346L10.6271 0.909285C10.7543 1.30593 10.8703 1.70632 10.9751 2.11419C11.0499 2.38735 11.1173 2.66798 11.1809 2.94863C11.2969 3.45753 11.3979 3.97767 11.484 4.50528C11.5027 4.63251 11.5251 4.75599 11.5401 4.88322C11.585 5.1938 11.6262 5.50438 11.6598 5.8187C11.6748 5.9347 11.686 6.05444 11.6935 6.17044C11.716 6.38747 11.7309 6.60825 11.7459 6.82528C11.7833 7.37534 11.802 7.92915 11.802 8.48669Z" fill="url(#paint2_linear_68_231)"/>
<g style="mix-blend-mode:multiply" opacity="0.15">
<path d="M7.28585 27.0803C6.49481 26.6247 5.74815 26.096 5.05566 25.5012C8.20289 22.1515 10.3606 17.9954 11.2892 13.494C12.2179 8.99249 11.8814 4.32178 10.3168 0C10.3168 0 16.8353 10.1743 7.28585 27.0803Z" fill="#0B0B0B"/>
</g>
<g style="mix-blend-mode:multiply" opacity="0.15">
<path d="M13.9092 28.9886C12.8499 28.9453 11.7986 28.7872 10.7734 28.5171C14.8701 26.4415 18.3113 23.2712 20.715 19.3581C23.1187 15.445 24.3909 10.9423 24.3903 6.34992C24.3902 5.48886 24.3465 4.62837 24.2593 3.77173C24.2593 3.77173 28.1457 17.8638 13.9092 28.9886Z" fill="#0B0B0B"/>
</g>
<g style="mix-blend-mode:multiply" opacity="0.25">
<path d="M24.5105 8.10365C24.488 8.41049 24.4656 8.73234 24.4431 9.06911C24.4132 9.40214 24.4132 9.76133 24.3496 10.1168C24.2972 10.476 24.241 10.8503 24.1849 11.2319C24.14 11.6174 24.0315 11.999 23.9492 12.3956C23.8707 12.8039 23.7695 13.2074 23.6461 13.6043C23.5226 14.0085 23.3991 14.4163 23.2719 14.8354C23.1222 15.2433 22.9613 15.6511 22.7966 16.0665C22.6469 16.4856 22.4374 16.8823 22.2503 17.2901L21.9622 17.9001C21.8612 18.1021 21.7452 18.2967 21.6367 18.495C21.4084 18.8804 21.2063 19.2883 20.9519 19.6587C20.7049 20.0329 20.458 20.4072 20.211 20.7776C19.7031 21.4818 19.1585 22.1587 18.5795 22.8057C18.0401 23.4115 17.4706 23.9897 16.8732 24.5382C16.5776 24.7889 16.2894 25.0322 16.0125 25.2679C15.8741 25.3839 15.7356 25.4961 15.6009 25.6084C15.4625 25.7132 15.3203 25.8142 15.1856 25.9115C14.9124 26.1098 14.6542 26.2969 14.4035 26.4766C14.1528 26.6562 13.8984 26.7946 13.6701 26.9443C13.2024 27.2249 12.8057 27.4831 12.4502 27.6552C11.8029 27.992 11.41 28.1828 11.3613 28.2053C11.3686 28.2037 11.3752 28.1998 11.38 28.1941C15.3165 26.0639 18.6039 22.909 20.8943 19.0635C23.1846 15.2179 24.3927 10.8246 24.3907 6.34869C24.3907 5.76869 24.372 5.19621 24.3309 4.62744C24.3421 4.72099 24.387 5.14757 24.4469 5.8286C24.4581 6.02692 24.488 6.22895 24.488 6.47966C24.4918 6.71166 24.4955 6.96611 24.4992 7.23927C24.503 7.51243 24.5067 7.79831 24.5105 8.10365Z" fill="#0B0B0B"/>
</g>
<g style="mix-blend-mode:multiply" opacity="0.25">
<path d="M5.45223 25.0671H5.45617C5.45223 25.075 5.44828 25.075 5.44434 25.079C5.44434 25.075 5.44828 25.0711 5.45223 25.0671Z" fill="#0B0B0B"/>
</g>
<g style="mix-blend-mode:multiply" opacity="0.25">
<path d="M10.5585 0.700367C10.5604 0.708237 10.563 0.715943 10.5661 0.723411H10.5623C10.5585 0.715728 10.5585 0.708049 10.5546 0.700367C10.5524 0.694186 10.5511 0.687706 10.5508 0.681152C10.5537 0.687387 10.5563 0.693806 10.5585 0.700367Z" fill="#0B0B0B"/>
</g>
<g style="mix-blend-mode:multiply" opacity="0.25">
<path d="M12.1232 8.81424C12.1297 9.61273 12.0922 10.411 12.0109 11.2053C11.9296 12.0244 11.806 12.8388 11.6405 13.6451C11.5544 14.0529 11.4646 14.4571 11.3524 14.8537L11.1915 15.4487C11.1278 15.6433 11.068 15.8378 11.0044 16.0324C10.9407 16.227 10.8809 16.4216 10.8173 16.6124C10.7462 16.7995 10.6751 16.9904 10.604 17.1737C10.4655 17.5516 10.3084 17.9109 10.1512 18.2663C10.0015 18.6256 9.83313 18.9661 9.66475 19.2991C9.49636 19.6322 9.32049 19.954 9.14462 20.2608C8.97623 20.5714 8.80036 20.867 8.61701 21.1476C8.4374 21.4283 8.26527 21.7014 8.08565 21.9521C7.90604 22.2029 7.7414 22.4498 7.56927 22.6706C7.39714 22.8914 7.22875 23.1009 7.07159 23.2955C6.75353 23.6847 6.45792 24.0065 6.22592 24.2796C5.79185 24.7324 5.51495 25.0056 5.45508 25.0654C9.54972 20.5146 11.811 14.6067 11.8014 8.48495C11.802 5.84786 11.3852 3.22726 10.5666 0.720459C10.5853 0.765362 10.6152 0.843943 10.6601 0.9562C10.7312 1.13207 10.836 1.394 10.9482 1.73452C11.2696 2.67498 11.5259 3.63643 11.7153 4.61205C11.8455 5.26536 11.9429 5.92476 12.0072 6.58779C12.0887 7.32708 12.1274 8.07049 12.1232 8.81424Z" fill="#0B0B0B"/>
</g>
<g style="mix-blend-mode:screen" opacity="0.4">
<path d="M24.3905 6.35019C24.3925 10.8261 23.1845 15.2194 20.8941 19.0649C18.6038 22.9105 15.3164 26.0653 11.3799 28.1956C11.4659 28.1357 11.8177 27.8962 12.3752 27.5295C12.7083 27.3312 13.0787 27.0356 13.509 26.7138C13.9506 26.4032 14.4108 26.0028 14.916 25.58C15.0432 25.4714 15.1742 25.3629 15.3051 25.2544C15.4286 25.1347 15.5559 25.0149 15.6831 24.8914C15.945 24.6482 16.2107 24.3938 16.4876 24.1356C16.9965 23.578 17.5653 23.0205 18.0779 22.3731C18.628 21.7595 19.1032 21.056 19.6196 20.3637C19.8553 20.0007 20.0911 19.6378 20.3268 19.2711C20.5701 18.9081 20.7609 18.5115 20.9817 18.1335C21.0902 17.9427 21.2061 17.7556 21.3034 17.561L21.5879 16.9698C21.775 16.5769 21.9845 16.1952 22.1341 15.7873C22.295 15.3907 22.456 14.994 22.6169 14.6011C22.7516 14.2008 22.8863 13.8041 23.0173 13.415C23.1632 13.0295 23.2418 12.6291 23.3541 12.2512C23.4551 11.8658 23.5785 11.4991 23.6384 11.1249C23.7843 10.384 23.9452 9.68425 24.0163 9.02941C24.065 8.70387 24.1099 8.38954 24.1511 8.09019C24.1773 7.78709 24.1997 7.49897 24.2222 7.22955C24.2446 6.96013 24.2633 6.70568 24.282 6.47368C24.3045 6.2529 24.2933 6.02839 24.3008 5.83381C24.312 5.14903 24.3269 4.72245 24.3307 4.62891C24.3718 5.19768 24.3905 5.77019 24.3905 6.35019Z" fill="white"/>
</g>
<g style="mix-blend-mode:screen" opacity="0.4">
<path d="M11.8019 8.48682C11.8115 14.6086 9.5502 20.5164 5.45556 25.0673C5.45182 25.0748 5.44808 25.0748 5.44434 25.0785C5.44434 25.0748 5.44808 25.0711 5.45182 25.0673C5.50421 24.9962 5.73621 24.6819 6.11788 24.1842C6.31995 23.8923 6.57814 23.5481 6.84756 23.1327C7.11698 22.7174 7.42007 22.2459 7.72317 21.722C7.88407 21.4638 8.03375 21.1869 8.18717 20.8988C8.34059 20.6107 8.50523 20.3151 8.65491 20.0007C8.81207 19.6902 8.96923 19.3721 9.11143 19.0353C9.25362 18.6985 9.41452 18.3655 9.54549 18.0138C9.68768 17.662 9.82988 17.3066 9.94962 16.9361C10.0806 16.5731 10.2041 16.1989 10.3163 15.821C10.3762 15.6302 10.4323 15.4393 10.4922 15.2485L10.6419 14.6685C10.7466 14.2831 10.829 13.8902 10.9076 13.4973C11.0761 12.7148 11.2047 11.9242 11.293 11.1286C11.379 10.3428 11.4464 9.5645 11.4651 8.80863C11.5387 6.44665 11.3175 4.08475 10.8065 1.77754C10.683 1.21251 10.5932 0.842059 10.5633 0.722317C10.5596 0.714833 10.5596 0.707353 10.5558 0.699869C10.5537 0.693849 10.5524 0.687536 10.5521 0.681152C10.5549 0.687225 10.5575 0.693478 10.5596 0.699869C10.5615 0.707537 10.564 0.715043 10.567 0.722317C11.3857 3.22912 11.8025 5.8497 11.8019 8.48682Z" fill="white"/>
</g>
<g style="mix-blend-mode:multiply" opacity="0.25">
<path d="M29.0009 14.5001C29.0008 18.3457 27.4732 22.0338 24.7539 24.7531C22.0346 27.4723 18.3466 29 14.501 29.0001C14.501 29.0001 14.6282 28.9889 14.8677 28.9664C15.1109 28.9515 15.4589 28.8991 15.9005 28.8392C16.342 28.7681 16.8734 28.6633 17.4721 28.5137C18.1367 28.3324 18.7901 28.1124 19.4291 27.8551C20.1781 27.5434 20.9013 27.173 21.5919 26.7475C22.3544 26.2702 23.0743 25.7281 23.7435 25.1272C24.4548 24.4835 25.1026 23.773 25.6781 23.0055C26.2753 22.2183 26.786 21.3689 27.2011 20.4723C27.6252 19.5785 27.955 18.6429 28.1852 17.6808C28.4076 16.7488 28.5404 15.7978 28.5819 14.8407C28.6181 13.9406 28.5756 13.0391 28.4546 12.1465C28.3429 11.344 28.1665 10.5518 27.927 9.77782C27.722 9.11887 27.4745 8.47391 27.1861 7.84699C26.9204 7.28944 26.666 6.81047 26.4377 6.4288C26.2095 6.04712 26.0186 5.74777 25.8802 5.55319C25.7754 5.40351 25.7118 5.30996 25.6856 5.2688C27.8337 7.86499 29.0064 11.1305 29.0009 14.5001Z" fill="#0B0B0B"/>
</g>
<g style="mix-blend-mode:screen" opacity="0.4">
<path d="M2.33872 0.325546L0.39291 0.374193L0.437809 3.08335C0.456519 4.10864 0.452788 5.13767 0.460272 6.1667C0.467756 7.19573 0.467756 8.22102 0.460272 9.24631C0.452788 10.2716 0.456519 11.3006 0.437809 12.3297L0.411627 13.8713L0.404136 14.6309C0.407878 14.8891 0.400394 15.1511 0.415362 15.3943C0.431298 15.8928 0.475023 16.39 0.546329 16.8836C0.617426 17.3813 0.718465 17.8752 0.834465 18.3654C0.952961 18.8543 1.09785 19.3365 1.26852 19.8098C1.4369 20.2887 1.63523 20.7565 1.84852 21.2167C2.07304 21.6695 2.30129 22.126 2.57071 22.5638C2.82516 22.9942 3.10955 23.417 3.40142 23.8286C1.20083 21.2187 -0.0042203 17.9138 1.11057e-05 14.5V0H9.35482C7.79444 0.112258 6.23779 0.17961 4.67741 0.243223L2.33872 0.325546Z" fill="white"/>
</g>
<path d="M34.993 18.0722V27H30.7101V11.5574H34.792V14.282H34.9729C35.3148 13.3838 35.8878 12.6734 36.6921 12.1506C37.4964 11.6211 38.4716 11.3563 39.6178 11.3563C40.6902 11.3563 41.6252 11.5909 42.4228 12.0601C43.2204 12.5293 43.8404 13.1995 44.2827 14.0708C44.7251 14.9355 44.9463 15.9676 44.9463 17.1674V27H40.6634V17.9315C40.6701 16.9864 40.4288 16.2492 39.9395 15.7197C39.4502 15.1835 38.7766 14.9154 37.9187 14.9154C37.3423 14.9154 36.8329 15.0393 36.3905 15.2873C35.9548 15.5353 35.613 15.8973 35.365 16.3732C35.1237 16.8423 34.9997 17.4087 34.993 18.0722ZM55.3595 27.3016C53.771 27.3016 52.4037 26.9799 51.2575 26.3365C50.1181 25.6863 49.2401 24.7681 48.6234 23.5817C48.0068 22.3887 47.6985 20.9778 47.6985 19.3491C47.6985 17.7606 48.0068 16.3664 48.6234 15.1667C49.2401 13.9669 50.1081 13.0319 51.2274 12.3617C52.3534 11.6914 53.6738 11.3563 55.1886 11.3563C56.2074 11.3563 57.1558 11.5205 58.0338 11.8489C58.9185 12.1707 59.6893 12.6566 60.3462 13.3067C61.0097 13.9569 61.5258 14.7746 61.8944 15.7599C62.2631 16.7384 62.4474 17.8846 62.4474 19.1983V20.3746H49.4076V17.7204H58.4158C58.4158 17.1037 58.2818 16.5575 58.0137 16.0816C57.7456 15.6057 57.3736 15.2337 56.8977 14.9656C56.4285 14.6908 55.8823 14.5534 55.2589 14.5534C54.6088 14.5534 54.0324 14.7042 53.5297 15.0058C53.0337 15.3007 52.645 15.6995 52.3635 16.2022C52.082 16.6982 51.9378 17.2512 51.9311 17.8611V20.3846C51.9311 21.1487 52.0719 21.8089 52.3534 22.3652C52.6416 22.9215 53.0471 23.3505 53.5699 23.6521C54.0927 23.9537 54.7127 24.1045 55.4299 24.1045C55.9057 24.1045 56.3414 24.0375 56.7369 23.9034C57.1323 23.7694 57.4708 23.5683 57.7523 23.3002C58.0338 23.0321 58.2483 22.7037 58.3957 22.3149L62.3569 22.5763C62.1558 23.5281 61.7436 24.3592 61.1203 25.0697C60.5037 25.7734 59.7061 26.323 58.7275 26.7185C57.7556 27.1072 56.633 27.3016 55.3595 27.3016ZM74.8412 27L70.6387 11.5574H74.9719L77.3647 21.9329H77.5055L79.9988 11.5574H84.2515L86.7851 21.8726H86.9158L89.2684 11.5574H93.5915L89.3991 27H84.8648L82.2106 17.288H82.0196L79.3654 27H74.8412ZM101.18 27.2513C100.007 27.2513 98.9443 26.9497 97.9925 26.3465C97.0475 25.7366 96.2968 24.8418 95.7405 23.6621C95.1909 22.4758 94.9161 21.0213 94.9161 19.2988C94.9161 17.5293 95.2009 16.0581 95.7707 14.8852C96.3404 13.7055 97.0978 12.8242 98.0428 12.241C98.9946 11.6512 100.037 11.3563 101.17 11.3563C102.034 11.3563 102.755 11.5038 103.331 11.7987C103.914 12.0869 104.383 12.4488 104.739 12.8845C105.101 13.3134 105.375 13.7357 105.563 14.1513H105.694V11.5574H109.967V27H105.744V24.5268H105.563C105.362 24.9557 105.077 25.3813 104.708 25.8036C104.347 26.2192 103.874 26.5643 103.291 26.8391C102.714 27.1139 102.011 27.2513 101.18 27.2513ZM102.537 23.8431C103.227 23.8431 103.81 23.6554 104.286 23.2801C104.769 22.8981 105.137 22.3652 105.392 21.6815C105.654 20.9979 105.784 20.1969 105.784 19.2787C105.784 18.3604 105.657 17.5628 105.402 16.8859C105.147 16.2089 104.779 15.6861 104.296 15.3175C103.814 14.9489 103.227 14.7645 102.537 14.7645C101.833 14.7645 101.24 14.9556 100.757 15.3376C100.275 15.7197 99.9095 16.2492 99.6615 16.9261C99.4135 17.6031 99.2895 18.3873 99.2895 19.2787C99.2895 20.1768 99.4135 20.9711 99.6615 21.6614C99.9162 22.3451 100.281 22.8813 100.757 23.27C101.24 23.6521 101.833 23.8431 102.537 23.8431ZM113.488 6.40985H117.771V22.3753C117.778 22.8645 117.865 23.2198 118.032 23.441C118.207 23.6554 118.501 23.7627 118.917 23.7627C119.131 23.756 119.299 23.7426 119.42 23.7225C119.54 23.7024 119.641 23.6755 119.721 23.642L120.405 26.7587C120.184 26.8257 119.912 26.8961 119.591 26.9698C119.276 27.0369 118.85 27.0804 118.314 27.1005C116.672 27.1609 115.458 26.8525 114.674 26.1756C113.89 25.4919 113.495 24.4162 113.488 22.9483V6.40985ZM122.418 6.40985H126.701V22.3753C126.708 22.8645 126.795 23.2198 126.963 23.441C127.137 23.6554 127.432 23.7627 127.847 23.7627C128.062 23.756 128.229 23.7426 128.35 23.7225C128.471 23.7024 128.571 23.6755 128.652 23.642L129.335 26.7587C129.114 26.8257 128.843 26.8961 128.521 26.9698C128.206 27.0369 127.78 27.0804 127.244 27.1005C125.602 27.1609 124.389 26.8525 123.605 26.1756C122.82 25.4919 122.425 24.4162 122.418 22.9483V6.40985ZM137.971 27.3016C136.383 27.3016 135.016 26.9799 133.869 26.3365C132.73 25.6863 131.852 24.7681 131.235 23.5817C130.619 22.3887 130.31 20.9778 130.31 19.3491C130.31 17.7606 130.619 16.3664 131.235 15.1667C131.852 13.9669 132.72 13.0319 133.839 12.3617C134.965 11.6914 136.286 11.3563 137.801 11.3563C138.819 11.3563 139.768 11.5205 140.646 11.8489C141.53 12.1707 142.301 12.6566 142.958 13.3067C143.622 13.9569 144.138 14.7746 144.506 15.7599C144.875 16.7384 145.059 17.8846 145.059 19.1983V20.3746H132.02V17.7204H141.028C141.028 17.1037 140.894 16.5575 140.626 16.0816C140.358 15.6057 139.986 15.2337 139.51 14.9656C139.04 14.6908 138.494 14.5534 137.871 14.5534C137.221 14.5534 136.644 14.7042 136.142 15.0058C135.646 15.3007 135.257 15.6995 134.975 16.2022C134.694 16.6982 134.55 17.2512 134.543 17.8611V20.3846C134.543 21.1487 134.684 21.8089 134.965 22.3652C135.254 22.9215 135.659 23.3505 136.182 23.6521C136.705 23.9537 137.325 24.1045 138.042 24.1045C138.518 24.1045 138.953 24.0375 139.349 23.9034C139.744 23.7694 140.083 23.5683 140.364 23.3002C140.646 23.0321 140.86 22.7037 141.008 22.3149L144.969 22.5763C144.768 23.5281 144.356 24.3592 143.732 25.0697C143.116 25.7734 142.318 26.323 141.339 26.7185C140.368 27.1072 139.245 27.3016 137.971 27.3016ZM156.068 11.5574V14.7746H146.768V11.5574H156.068ZM148.88 7.8576H153.163V22.2546C153.163 22.6501 153.223 22.9584 153.344 23.1796C153.464 23.394 153.632 23.5448 153.846 23.632C154.068 23.7191 154.322 23.7627 154.61 23.7627C154.812 23.7627 155.013 23.7459 155.214 23.7124C155.415 23.6722 155.569 23.642 155.676 23.6219L156.35 26.809C156.135 26.876 155.834 26.9531 155.445 27.0402C155.056 27.1341 154.584 27.191 154.027 27.2111C152.995 27.2513 152.09 27.1139 151.313 26.7989C150.542 26.4839 149.942 25.9946 149.513 25.3311C149.084 24.6675 148.873 23.8297 148.88 22.8176V7.8576Z" fill="white"/>
<defs>
<linearGradient id="paint0_linear_68_231" x1="26.5945" y1="8.23708" x2="13.2876" y2="23.6315" gradientUnits="userSpaceOnUse">
<stop stop-color="#4333F5"/>
<stop offset="1" stop-color="#1E015C"/>
</linearGradient>
<linearGradient id="paint1_linear_68_231" x1="14.7229" y1="1.56845" x2="14.7229" y2="26.2073" gradientUnits="userSpaceOnUse">
<stop stop-color="#4200FC"/>
<stop offset="1" stop-color="#5E00F8"/>
</linearGradient>
<linearGradient id="paint2_linear_68_231" x1="5.90102" y1="-0.0510025" x2="5.90102" y2="26.5213" gradientUnits="userSpaceOnUse">
<stop stop-color="#7F53FC"/>
<stop offset="1" stop-color="#4F00F8"/>
</linearGradient>
</defs>
</svg>
