<svg width="84" height="85" viewBox="0 0 84 85" fill="none" xmlns="http://www.w3.org/2000/svg">
<ellipse opacity="0.1" cx="42" cy="42.3621" rx="42" ry="42.3621" fill="white"/>
<path d="M39.4833 25.7167L31.1667 28.85C29.25 29.5667 27.6833 31.8333 27.6833 33.8667V46.25C27.6833 48.2167 28.9833 50.8 30.5667 51.9833L37.7333 57.3333C40.0833 59.1 43.95 59.1 46.3 57.3333L53.4667 51.9833C55.05 50.8 56.35 48.2167 56.35 46.25V33.8667C56.35 31.8167 54.7833 29.55 52.8667 28.8333L44.55 25.7167C43.1333 25.2 40.8667 25.2 39.4833 25.7167Z" stroke="white" stroke-width="2.5" stroke-linecap="round" stroke-linejoin="round"/>
<path d="M42 42.8334C43.841 42.8334 45.3334 41.341 45.3334 39.5C45.3334 37.6591 43.841 36.1667 42 36.1667C40.1591 36.1667 38.6667 37.6591 38.6667 39.5C38.6667 41.341 40.1591 42.8334 42 42.8334Z" stroke="white" stroke-width="2.5" stroke-miterlimit="10" stroke-linecap="round" stroke-linejoin="round"/>
<path d="M42 42.8333V47.8333" stroke="white" stroke-width="2.5" stroke-miterlimit="10" stroke-linecap="round" stroke-linejoin="round"/>
</svg>
