<svg width="472" height="437" viewBox="0 0 472 437" fill="none" xmlns="http://www.w3.org/2000/svg">
<path d="M472 218.212C471.999 276.076 447.16 331.57 402.947 372.486C358.735 413.402 298.771 436.389 236.246 436.39C233.021 436.39 229.857 436.334 226.633 436.221C209.411 435.57 192.317 433.192 175.649 429.127C178.874 427.607 182.037 426.087 185.201 424.454C185.262 424.454 185.323 424.397 185.444 424.341L185.505 424.285C188.851 422.596 192.137 420.907 195.361 419.161C196.152 418.711 196.943 418.317 197.734 417.923C200.776 416.233 203.818 414.544 206.799 412.743C207.681 412.301 208.534 411.812 209.354 411.279C211.666 409.984 213.978 408.576 216.229 407.168C217.811 406.211 219.454 405.198 220.975 404.241C223.287 402.777 225.538 401.313 227.789 399.793C229.31 398.835 230.709 397.878 232.169 396.809C234.116 395.57 236.002 394.219 237.888 392.867C239.592 391.741 241.234 390.559 242.877 389.32C245.189 387.687 247.44 385.998 249.691 384.196C250.665 383.521 251.638 382.789 252.612 382.001C255.045 380.143 257.418 378.228 259.791 376.258C261.068 375.244 262.346 374.231 263.624 373.105C265.023 371.978 266.361 370.852 267.7 369.67C270.255 367.53 272.75 365.278 275.244 363.026C275.578 362.773 275.884 362.491 276.157 362.182C278.59 360.042 280.963 357.79 283.275 355.538C284.917 354.074 286.439 352.554 287.899 351.033C289.663 349.401 291.306 347.711 292.948 346.022C293.922 345.065 294.834 344.108 295.686 343.151C297.876 340.899 300.006 338.59 302.135 336.282C303.23 335.099 304.325 333.861 305.36 332.622C306.942 330.933 308.462 329.244 309.862 327.498C311.322 325.866 312.721 324.176 314.06 322.487C315.337 321.023 316.554 319.503 317.71 318.039C319.292 316.125 320.813 314.211 322.273 312.24C323.733 310.269 325.315 308.299 326.775 306.272C327.5 305.388 328.17 304.467 328.783 303.513C330.852 300.698 332.859 297.826 334.806 294.955C337.301 291.408 339.673 287.804 341.924 284.144C342.959 282.568 343.932 280.991 344.906 279.415C352.795 266.537 359.826 253.224 365.956 239.552C366.869 237.637 367.72 235.723 368.511 233.752C369.485 231.669 370.337 229.529 371.188 227.39C371.918 225.645 372.649 223.843 373.318 222.041C374.109 220.07 374.839 218.043 375.569 216.073C378.246 208.866 380.679 201.603 382.809 194.227C383.356 192.369 383.904 190.567 384.391 188.709C384.756 187.527 385.06 186.401 385.364 185.218L386.824 179.475C388.771 171.649 390.414 163.766 391.813 155.771L392.726 150.366C392.847 149.522 392.969 148.733 393.091 147.889C393.456 145.749 393.76 143.61 394.003 141.47C394.429 138.261 394.855 135.051 395.159 131.842C395.281 130.998 395.342 130.153 395.403 129.308C395.646 127.113 395.829 124.86 396.011 122.665C396.194 120.469 396.315 118.16 396.437 115.908C396.559 114.332 396.619 112.755 396.68 111.122C396.924 105.942 397.045 100.762 397.045 95.5824C397.045 92.9361 397.045 90.3461 396.924 87.7561C396.924 86.4049 396.924 85.1099 396.863 83.7586C396.68 79.0853 396.437 74.4684 396.072 69.8515V69.6826C396.011 68.5565 395.95 67.4304 395.828 66.3043C395.585 63.2076 395.281 60.1672 394.977 57.0705C394.979 56.9736 394.958 56.8774 394.916 56.789C403.113 63.698 410.777 71.1296 417.852 79.029L418.035 79.1979C418.068 79.2283 418.09 79.2678 418.096 79.3106C453.022 118.375 472.09 167.51 472 218.212Z" fill="#24017D"/>
<path d="M397.045 95.5824C397.078 162.931 377.434 229.037 340.195 286.9C302.957 344.764 249.509 392.232 185.505 424.285C185.426 424.37 185.32 424.43 185.201 424.454L185.138 424.512C181.975 426.089 178.813 427.607 175.649 429.127C155.794 424.284 136.723 417.015 118.945 407.508C106.083 400.653 93.9432 392.698 82.6842 383.748C84.8136 381.665 86.8821 379.582 88.9507 377.442L89.0109 377.386C89.0109 377.329 89.0724 377.273 89.1332 377.217H89.1934C155.769 308.741 192.534 219.848 192.378 127.734C192.388 88.0543 185.612 48.6228 172.301 10.9035H172.24C172.24 10.7908 172.18 10.6782 172.18 10.5656H172.118C172.083 10.475 172.063 10.3801 172.058 10.284C170.841 6.84946 169.563 3.41507 168.225 0.03683H236.244C294.935 -0.0383898 351.536 20.2042 394.916 56.789C395.403 61.0681 395.768 65.3472 396.072 69.6826C396.741 78.2408 397.045 86.8553 397.045 95.5824Z" fill="#24017D"/>
<path d="M192.378 127.734C192.378 131.506 192.312 135.279 192.191 138.995C192.13 141.416 192.008 143.781 191.886 146.202C191.4 155.886 190.487 165.514 189.149 175.086C188.844 177.563 188.479 179.984 188.054 182.405C187.628 185.389 187.08 188.317 186.533 191.301C186.046 194.116 185.498 196.875 184.89 199.69C184.768 200.366 184.586 201.042 184.464 201.717C183.977 204.026 183.43 206.391 182.882 208.699C180.025 220.699 176.512 232.556 172.357 244.227C171.566 246.535 170.714 248.788 169.862 250.983C169.788 251.254 169.687 251.518 169.558 251.772C168.707 254.08 167.855 256.276 166.942 258.528C166.699 259.204 166.395 259.936 166.09 260.668C165.117 263.089 164.083 265.453 163.048 267.818C161.892 270.521 160.676 273.223 159.398 275.87C158.12 278.629 156.782 281.387 155.443 284.146C154.166 286.68 152.827 289.214 151.55 291.691C150.15 294.337 148.751 296.927 147.291 299.461C145.831 301.995 144.371 304.585 142.85 307.118C141.329 309.652 139.808 312.186 138.287 314.663C136.766 317.141 135.123 319.674 133.48 322.152C131.838 324.629 130.195 327.05 128.491 329.471C125.145 334.313 121.677 339.099 118.088 343.772C114.498 348.446 110.726 353.062 106.954 357.623C101.235 364.323 95.3182 370.854 89.1934 377.217H89.1332C89.0724 377.273 89.0672 377.273 89.0672 377.329C89.0672 377.344 89.0611 377.359 89.0495 377.369C89.038 377.38 89.0273 377.386 89.0109 377.386C86.9423 379.525 84.8136 381.665 82.6842 383.748C73.0982 376.125 64.1819 367.802 56.0313 358.862C55.9695 358.755 55.8869 358.66 55.788 358.58C20.0087 319.31 0.415757 269.581 0.484556 218.214V0.0366211L168.225 0.03683C169.563 3.41507 170.836 6.7931 171.992 10.2276L172.058 10.284C172.063 10.3801 172.083 10.475 172.118 10.5656H172.18L172.174 10.7343C172.171 10.7649 172.174 10.7959 172.184 10.8251C172.195 10.8542 172.218 10.8812 172.24 10.9035H172.301C172.355 11.1182 172.432 11.3258 172.539 11.5225L173.269 13.7184C175.338 19.6866 177.224 25.7112 178.928 31.8483C180.144 35.9585 181.24 40.1812 182.274 44.404C184.16 52.0613 185.803 59.8877 187.202 67.8266C187.506 69.7409 187.871 71.599 188.114 73.5133C188.844 78.1865 189.514 82.8597 190.061 87.5893C190.305 89.3347 190.487 91.1364 190.609 92.8818C190.974 96.1475 191.217 99.4694 191.461 102.735C192.069 111.012 192.378 119.345 192.378 127.734Z" fill="#24017D"/>
<path d="M118.945 407.508C106.083 400.653 93.9432 392.698 82.6842 383.748C133.855 333.346 168.936 270.81 184.035 203.077C199.135 135.345 193.663 65.0656 168.225 0.03683C168.225 0.03683 274.208 153.127 118.945 407.508Z" fill="#24017D"/>
<path d="M226.633 436.221C209.411 435.57 192.317 433.192 175.649 429.127C242.256 397.896 298.206 350.193 337.288 291.314C376.371 232.434 397.055 164.683 397.045 95.5824C397.043 82.6263 396.332 69.6786 394.916 56.789C394.916 56.789 458.104 268.83 226.633 436.221Z" fill="#24017D"/>
<path d="M398.999 121.97C398.634 126.587 398.269 131.43 397.904 136.497C397.417 141.509 397.417 146.913 396.383 152.262C395.531 157.667 394.618 163.298 393.706 169.041C392.976 174.84 391.211 180.583 389.873 186.551C388.596 192.693 386.951 198.765 384.945 204.738C382.937 210.819 380.929 216.956 378.861 223.262C376.427 229.399 373.811 235.536 371.134 241.785C368.7 248.091 365.294 254.06 362.252 260.197L357.567 269.375C355.924 272.415 354.038 275.343 352.274 278.327C348.563 284.126 345.277 290.263 341.14 295.837C337.125 301.467 333.109 307.098 329.094 312.673C320.836 323.268 311.981 333.454 302.568 343.189C293.798 352.304 284.538 361.004 274.825 369.258C270.018 373.03 265.334 376.69 260.832 380.237C258.581 381.983 256.329 383.671 254.139 385.36C251.888 386.937 249.576 388.458 247.386 389.922C242.945 392.906 238.747 395.721 234.67 398.423C230.594 401.126 226.457 403.209 222.746 405.461C215.141 409.684 208.692 413.569 202.912 416.159C192.387 421.226 185.999 424.097 185.208 424.435C185.326 424.412 185.433 424.353 185.512 424.266C249.515 392.214 302.965 344.743 340.203 286.88C377.442 229.017 397.084 162.912 397.052 95.5639C397.052 86.8368 396.748 78.2229 396.079 69.6647C396.261 71.0723 396.991 77.4909 397.965 87.7383C398.147 90.7224 398.634 93.7622 398.634 97.5346C398.695 101.025 398.755 104.854 398.816 108.964C398.877 113.074 398.938 117.376 398.999 121.97Z" fill="#24017D"/>
<path d="M89.1332 377.217H89.1934C89.1293 377.336 89.075 377.326 89.0109 377.386C89.0109 377.329 89.0724 377.273 89.1332 377.217Z" fill="#24017D"/>
<path d="M172.154 10.5749C172.186 10.6933 172.228 10.8093 172.279 10.9216H172.216C172.154 10.806 172.154 10.6905 172.091 10.5749C172.055 10.4819 172.035 10.3844 172.029 10.2858C172.077 10.3796 172.119 10.4762 172.154 10.5749Z" fill="#24017D"/>
<path d="M197.595 132.662C197.701 144.677 197.092 156.688 195.77 168.641C194.447 180.966 192.437 193.219 189.746 205.351C188.347 211.488 186.887 217.569 185.062 223.537L182.446 232.489C181.411 235.417 180.438 238.345 179.404 241.273C178.369 244.201 177.396 247.128 176.362 250C175.206 252.815 174.05 255.687 172.894 258.445C170.643 264.132 168.087 269.537 165.532 274.886C163.099 280.291 160.361 285.415 157.623 290.426C154.885 295.437 152.026 300.279 149.166 304.896C146.429 309.569 143.569 314.017 140.588 318.24C137.668 322.463 134.869 326.573 131.949 330.346C129.028 334.118 126.351 337.834 123.553 341.156C120.754 344.478 118.016 347.631 115.461 350.559C110.29 356.414 105.483 361.257 101.711 365.367C94.6538 372.179 90.1517 376.29 89.1782 377.19C155.753 308.715 192.518 219.821 192.363 127.708C192.373 88.0281 185.597 48.5965 172.285 10.8772C172.59 11.5529 173.076 12.7352 173.806 14.4244C174.962 17.0706 176.666 21.0119 178.491 26.1355C183.716 40.2864 187.883 54.7531 190.963 69.4331C193.08 79.2633 194.664 89.1851 195.709 99.1616C197.033 110.286 197.663 121.472 197.595 132.662Z" fill="#24017D"/>
<path d="M397.045 95.5824C397.078 162.931 377.434 229.037 340.195 286.9C302.957 344.764 249.509 392.232 185.505 424.285C186.905 423.384 192.628 419.785 201.693 414.267C207.107 411.283 213.131 406.835 220.127 401.993C227.306 397.319 234.789 391.295 243.002 384.932C245.071 383.3 247.2 381.667 249.33 380.034C251.337 378.232 253.407 376.431 255.475 374.573C259.734 370.913 264.054 367.084 268.556 363.199C276.829 354.81 286.077 346.421 294.413 336.68C303.355 327.446 311.082 316.861 319.478 306.445C323.311 300.983 327.144 295.522 330.977 290.004C334.932 284.543 338.035 278.574 341.624 272.888C343.389 270.016 345.274 267.201 346.856 264.273L351.48 255.377C354.522 249.465 357.929 243.722 360.362 237.585C362.979 231.617 365.595 225.649 368.211 219.737C370.402 213.712 372.592 207.744 374.721 201.888C377.094 196.089 378.372 190.065 380.197 184.378C381.839 178.579 383.847 173.061 384.82 167.43C387.193 156.282 389.809 145.753 390.965 135.9C391.756 131.002 392.486 126.272 393.156 121.768C393.582 117.207 393.947 112.872 394.312 108.818C394.677 104.764 394.98 100.935 395.284 97.4446C395.649 94.1226 395.468 90.7444 395.589 87.8166C395.772 77.513 396.011 71.0902 396.072 69.6826C396.741 78.2408 397.045 86.8553 397.045 95.5824Z" fill="#24017D"/>
<path d="M192.378 127.734C192.534 219.848 155.769 308.741 89.1934 377.217C89.1293 377.336 89.075 377.326 89.0109 377.386C89.0109 377.329 89.0724 377.273 89.1332 377.217C89.985 376.147 93.7491 371.419 99.9547 363.931C103.24 359.539 107.438 354.359 111.819 348.11C116.199 341.86 121.127 334.766 126.055 326.883C128.671 322.998 131.105 318.832 133.599 314.496C136.094 310.161 138.771 305.713 141.204 300.983C143.759 296.31 146.315 291.524 148.627 286.457C150.939 281.389 153.555 276.378 155.684 271.086C157.996 265.793 160.308 260.444 162.255 254.87C164.384 249.409 166.392 243.778 168.217 238.092C169.19 235.22 170.103 232.349 171.077 229.477L173.51 220.75C175.214 214.951 176.552 209.039 177.83 203.127C180.569 191.353 182.661 179.457 184.096 167.487C185.496 155.663 186.591 143.952 186.895 132.578C188.092 97.0379 184.495 61.4989 176.187 26.7829C174.179 18.281 172.727 12.7052 172.24 10.9035C172.18 10.7908 172.179 10.6782 172.118 10.5656C172.083 10.475 172.063 10.3801 172.058 10.284C172.105 10.3754 172.145 10.4695 172.18 10.5656C172.211 10.681 172.251 10.794 172.301 10.9035C185.612 48.6228 192.388 88.0543 192.378 127.734Z" fill="#24017D"/>
<path d="M472 218.212C471.999 276.076 447.16 331.57 402.947 372.486C358.735 413.402 298.771 436.389 236.246 436.39C236.246 436.39 238.324 436.226 242.217 435.888C246.172 435.663 251.83 434.875 259.009 433.974C266.188 432.904 274.827 431.327 284.562 429.075C295.368 426.347 305.991 423.038 316.381 419.166C328.559 414.476 340.317 408.903 351.547 402.5C363.943 395.319 375.648 387.162 386.529 378.12C398.094 368.435 408.627 357.744 417.984 346.196C427.694 334.35 435.996 321.57 442.745 308.078C449.642 294.63 455.004 280.553 458.746 266.075C462.363 252.053 464.522 237.743 465.195 223.341C465.785 209.797 465.093 196.233 463.127 182.802C461.311 170.727 458.441 158.808 454.548 147.161C451.215 137.246 447.191 127.542 442.502 118.108C438.182 109.719 434.045 102.512 430.334 96.7693C426.623 91.0263 423.52 86.522 421.269 83.5942C419.565 81.342 418.522 79.9299 418.096 79.3106C453.022 118.375 472.09 167.51 472 218.212Z" fill="#24017D"/>
<path d="M38.5095 4.93504L6.87268 5.66702L7.6027 46.431C7.9069 61.8584 7.84624 77.342 7.96792 92.8255C8.0896 108.309 8.0896 123.736 7.96792 139.164C7.84624 154.591 7.9069 170.075 7.6027 185.558L7.177 208.755L7.0552 220.185C7.11604 224.07 6.99436 228.011 7.23772 231.671C7.49684 239.171 8.20775 246.653 9.36711 254.08C10.5231 261.568 12.1659 269.001 14.0519 276.376C15.9785 283.734 18.3342 290.988 21.1091 298.11C23.8469 305.317 27.0716 312.355 30.5394 319.28C34.1898 326.093 37.901 332.962 42.2815 339.549C46.4186 346.024 51.0425 352.387 55.788 358.58C20.0087 319.31 0.415757 269.581 0.484556 218.214V0.0366211H152.584C127.214 1.72574 101.904 2.73918 76.5342 3.69634L38.5095 4.93504Z" fill="#24017D"/>
</svg>
